<svg width="119" height="52" viewBox="0 0 119 52" fill="none" xmlns="http://www.w3.org/2000/svg">
<g filter="url(#filter0_d_16_3)">
<path d="M20.736 10.728C22.656 10.728 24.16 11.272 25.248 12.36C26.336 13.4267 26.88 15.016 26.88 17.128C26.88 19.2187 26.1227 21.1387 24.608 22.888C23.0933 24.6373 21.184 25.512 18.88 25.512C17.5573 25.512 16.704 25.3413 16.32 25C16.0427 24.7227 15.904 24.392 15.904 24.008C15.904 23.6027 16.032 23.2933 16.288 23.08C16.544 22.8453 16.832 22.728 17.152 22.728C17.4933 22.728 17.9413 22.8347 18.496 23.048C19.072 23.2613 19.6373 23.368 20.192 23.368C21.3867 23.368 22.4213 22.888 23.296 21.928C24.192 20.9467 24.64 19.7413 24.64 18.312C24.64 16.8613 24.16 15.6027 23.2 14.536C22.2613 13.4693 21.0347 12.936 19.52 12.936C18.0053 12.936 16.5973 13.3413 15.296 14.152C15.04 20.68 14.912 29.1387 14.912 39.528C14.912 41.384 14.3253 42.312 13.152 42.312C12.704 42.312 12.2987 42.1413 11.936 41.8C11.5947 41.4587 11.424 41.0213 11.424 40.488C11.424 39.976 11.648 39.4 12.096 38.76C12.5653 38.12 12.8 37.448 12.8 36.744C12.8 29.8533 12.768 25.3413 12.704 23.208C12.5973 19.6453 12.544 17.4053 12.544 16.488C11.9467 17.192 11.4667 17.9173 11.104 18.664C10.7413 19.4107 10.3467 19.784 9.92 19.784C9.344 19.784 9.056 19.4853 9.056 18.888C9.056 18.2907 9.38667 17.5547 10.048 16.68C10.7093 15.784 11.552 14.8987 12.576 14.024C13.6213 13.128 14.88 12.36 16.352 11.72C17.8453 11.0587 19.3067 10.728 20.736 10.728ZM39.8803 28.712C40.0296 29.096 40.3389 29.6187 40.8083 30.28C41.2989 30.92 41.5443 31.4427 41.5443 31.848C41.5443 32.2533 41.4376 32.584 41.2243 32.84C41.0109 33.0747 40.7229 33.192 40.3603 33.192C39.4856 33.192 38.7069 32.2853 38.0243 30.472L37.7683 29.768C36.6803 32.0507 35.0483 33.192 32.8723 33.192C31.7843 33.192 30.8776 32.8507 30.1523 32.168C29.4483 31.464 29.0963 30.5893 29.0963 29.544C29.0963 27.9227 29.6509 26.5253 30.7603 25.352C31.8696 24.1787 33.3203 23.5493 35.1123 23.464C34.6856 22.7173 34.2056 22.1627 33.6723 21.8C33.1603 21.416 32.6909 21.192 32.2643 21.128C31.8376 21.064 31.4323 21.032 31.0483 21.032C30.6856 21.0107 30.3976 20.9253 30.1843 20.776C29.9709 20.6267 29.8643 20.3387 29.8643 19.912C29.8643 19.464 30.0349 19.1013 30.3763 18.824C30.7389 18.5467 31.1656 18.408 31.6562 18.408C33.0429 18.408 34.4083 19.1013 35.7523 20.488C37.0963 21.8747 38.2696 24.0507 39.2723 27.016L39.8803 28.712ZM34.3123 25.16C33.5443 25.16 32.8509 25.416 32.2323 25.928C31.6349 26.44 31.3363 27.1013 31.3363 27.912C31.3363 28.7227 31.6029 29.4053 32.1363 29.96C32.6909 30.4933 33.3523 30.76 34.1203 30.76C34.8883 30.76 35.5496 30.4933 36.1042 29.96C36.6589 29.4053 36.9363 28.7547 36.9363 28.008C36.9363 27.4747 36.8403 26.984 36.6483 26.536C36.4563 26.0667 36.3389 25.7787 36.2963 25.672C35.7416 25.3307 35.0803 25.16 34.3123 25.16ZM56.7118 28.424C56.8398 29.0427 57.1171 29.5973 57.5438 30.088C57.9918 30.5573 58.2158 31.0373 58.2158 31.528C58.2158 32.0187 58.0451 32.424 57.7038 32.744C57.3624 33.0427 56.9891 33.192 56.5838 33.192C56.1784 33.192 55.8478 33.1173 55.5918 32.968C55.3358 32.8187 55.1224 32.5947 54.9518 32.296C54.7171 31.848 54.5358 31.304 54.4078 30.664L52.9998 23.976C52.7864 22.9947 52.4451 22.216 51.9758 21.64C51.5278 21.064 50.8238 20.776 49.8638 20.776C48.9251 20.776 48.1891 21.1067 47.6558 21.768C47.1438 22.408 46.8771 23.112 46.8558 23.88C47.0264 28.936 47.1118 31.6133 47.1118 31.912C47.1118 32.1893 46.9838 32.4773 46.7278 32.776C46.4718 33.0533 46.1411 33.192 45.7358 33.192C45.3304 33.192 44.9784 33.0533 44.6798 32.776C44.4024 32.4773 44.2638 31.9973 44.2638 31.336C44.2638 30.6747 44.3171 29.1067 44.4238 26.632C44.5304 24.136 44.5838 22.2053 44.5838 20.84C44.5838 19.4747 44.5304 17.64 44.4238 15.336C44.3171 13.032 44.2638 11.5493 44.2638 10.888C44.2638 10.2267 44.4024 9.74666 44.6798 9.448C44.9784 9.14933 45.3304 9 45.7358 9C46.1411 9 46.4718 9.14933 46.7278 9.448C46.9838 9.72533 47.1118 10.1947 47.1118 10.856C47.1118 11.496 47.0584 13.0107 46.9518 15.4C46.8664 17.768 46.8238 19.7093 46.8238 21.224C48.0824 19.3467 49.5331 18.408 51.1758 18.408C53.4158 18.408 54.8558 19.912 55.4958 22.92L56.7118 28.424ZM61.7758 30.664C61.7758 27.976 61.7224 25.6187 61.6158 23.592C61.5091 21.5653 61.4557 20.3707 61.4557 20.008C61.4557 19.6453 61.5944 19.2933 61.8718 18.952C62.1704 18.5893 62.5224 18.408 62.9278 18.408C63.3331 18.408 63.6638 18.5787 63.9198 18.92C64.1758 19.24 64.3038 19.72 64.3038 20.36C64.3038 20.9787 64.2291 22.0347 64.0798 23.528C63.9304 25 63.8558 26.536 63.8558 28.136C63.8558 28.776 63.9838 29.3947 64.2398 29.992C64.5171 30.568 64.6558 31.1013 64.6558 31.592C64.6558 32.0613 64.5171 32.4453 64.2398 32.744C63.9838 33.0427 63.6211 33.192 63.1518 33.192C62.7038 33.192 62.3624 32.936 62.1278 32.424C61.8931 31.912 61.7758 31.3253 61.7758 30.664ZM62.7998 14.792C62.3304 14.792 61.9571 14.664 61.6798 14.408C61.4024 14.152 61.2638 13.7787 61.2638 13.288C61.2638 12.7973 61.4344 12.3813 61.7758 12.04C62.1171 11.6773 62.5224 11.496 62.9918 11.496C63.4611 11.496 63.8344 11.6347 64.1118 11.912C64.4104 12.168 64.5598 12.5413 64.5598 13.032C64.5598 13.5227 64.3784 13.9387 64.0158 14.28C63.6744 14.6213 63.2691 14.792 62.7998 14.792ZM71.9585 25.48L72.2145 31.272C72.2145 31.848 72.0652 32.3173 71.7665 32.68C71.4892 33.0213 71.1478 33.192 70.7425 33.192C70.3372 33.192 70.0065 33.032 69.7505 32.712C69.4945 32.3707 69.3665 31.912 69.3665 31.336C69.3665 30.76 69.4198 29.9387 69.5265 28.872C69.7398 26.7387 69.8465 24.936 69.8465 23.464C69.8465 22.824 69.6438 22.216 69.2385 21.64C68.8545 21.0427 68.6625 20.5093 68.6625 20.04C68.6625 19.5707 68.8225 19.1867 69.1425 18.888C69.4625 18.568 69.8252 18.408 70.2305 18.408C71.2972 18.408 71.8305 19.2507 71.8305 20.936V22.184C72.4705 21.032 73.2385 20.1147 74.1345 19.432C75.0305 18.7493 75.8518 18.408 76.5985 18.408C77.3452 18.408 77.9105 18.6 78.2945 18.984C78.6998 19.3467 78.9025 19.8373 78.9025 20.456C78.9025 21.0747 78.7532 21.5973 78.4545 22.024C78.1558 22.4293 77.8358 22.632 77.4945 22.632C77.1532 22.632 76.8865 22.5467 76.6945 22.376C76.5238 22.184 76.3958 21.992 76.3105 21.8C76.2252 21.5867 76.0652 21.3947 75.8305 21.224C75.5958 21.032 75.2972 20.936 74.9345 20.936C74.3158 20.936 73.6972 21.3413 73.0785 22.152C72.4598 22.9627 72.0865 24.072 71.9585 25.48ZM91.7553 28.712C91.9046 29.096 92.2139 29.6187 92.6833 30.28C93.1739 30.92 93.4193 31.4427 93.4193 31.848C93.4193 32.2533 93.3126 32.584 93.0993 32.84C92.8859 33.0747 92.5979 33.192 92.2353 33.192C91.3606 33.192 90.5819 32.2853 89.8993 30.472L89.6433 29.768C88.5553 32.0507 86.9233 33.192 84.7473 33.192C83.6593 33.192 82.7526 32.8507 82.0273 32.168C81.3233 31.464 80.9713 30.5893 80.9713 29.544C80.9713 27.9227 81.5259 26.5253 82.6353 25.352C83.7446 24.1787 85.1953 23.5493 86.9873 23.464C86.5606 22.7173 86.0806 22.1627 85.5473 21.8C85.0353 21.416 84.5659 21.192 84.1393 21.128C83.7126 21.064 83.3073 21.032 82.9233 21.032C82.5606 21.0107 82.2726 20.9253 82.0593 20.776C81.8459 20.6267 81.7393 20.3387 81.7393 19.912C81.7393 19.464 81.9099 19.1013 82.2513 18.824C82.6139 18.5467 83.0406 18.408 83.5312 18.408C84.9179 18.408 86.2833 19.1013 87.6273 20.488C88.9713 21.8747 90.1446 24.0507 91.1473 27.016L91.7553 28.712ZM86.1873 25.16C85.4193 25.16 84.7259 25.416 84.1073 25.928C83.5099 26.44 83.2113 27.1013 83.2113 27.912C83.2113 28.7227 83.4779 29.4053 84.0113 29.96C84.5659 30.4933 85.2273 30.76 85.9953 30.76C86.7633 30.76 87.4246 30.4933 87.9792 29.96C88.5339 29.4053 88.8113 28.7547 88.8113 28.008C88.8113 27.4747 88.7153 26.984 88.5233 26.536C88.3313 26.0667 88.2139 25.7787 88.1713 25.672C87.6166 25.3307 86.9553 25.16 86.1873 25.16ZM98.7948 23.848L98.9868 31.656C98.9868 32.104 98.8588 32.4773 98.6028 32.776C98.3468 33.0533 98.0161 33.192 97.6108 33.192C97.2054 33.192 96.8534 33.0533 96.5548 32.776C96.2774 32.4773 96.1388 32.104 96.1388 31.656L96.3628 25.32C96.3628 25.32 96.2881 23.5387 96.1388 19.976C96.1388 19.528 96.2774 19.1547 96.5548 18.856C96.8534 18.5573 97.2054 18.408 97.6108 18.408C98.0161 18.408 98.3468 18.5573 98.6028 18.856C98.8588 19.1333 98.9868 19.4853 98.9868 19.912C98.9868 20.3387 98.9761 20.6587 98.9548 20.872C100.149 19.2293 101.525 18.408 103.083 18.408C105.323 18.408 106.763 19.912 107.403 22.92L108.619 28.424C108.747 28.9147 109.003 29.448 109.387 30.024C109.792 30.5787 109.995 31.08 109.995 31.528C109.995 32.6373 109.461 33.192 108.395 33.192C107.328 33.192 106.635 32.3493 106.315 30.664L105.099 23.976C104.693 21.8427 103.595 20.776 101.803 20.776C100.885 20.776 100.171 21.0853 99.6588 21.704C99.1468 22.3227 98.8588 23.0373 98.7948 23.848Z" fill="#0F0A31"/>
<path d="M25.248 12.36L24.8944 12.7136L24.898 12.717L25.248 12.36ZM24.608 22.888L24.986 23.2153L24.986 23.2153L24.608 22.888ZM16.32 25L15.9664 25.3536L15.9768 25.3639L15.9878 25.3737L16.32 25ZM16.288 23.08L16.6081 23.4641L16.6172 23.4566L16.6259 23.4486L16.288 23.08ZM18.496 23.048L18.3165 23.5147L18.3223 23.5169L18.496 23.048ZM23.296 21.928L22.9268 21.5909L22.9264 21.5913L23.296 21.928ZM23.2 14.536L22.8246 14.8663L22.8284 14.8705L23.2 14.536ZM15.296 14.152L15.0316 13.7276L14.8068 13.8677L14.7964 14.1324L15.296 14.152ZM11.936 41.8L11.5824 42.1536L11.5878 42.1589L11.5933 42.1641L11.936 41.8ZM12.096 38.76L11.6927 38.4642L11.6864 38.4733L12.096 38.76ZM12.704 23.208L12.2042 23.223L12.2042 23.223L12.704 23.208ZM12.544 16.488H13.044V15.1259L12.1627 16.1645L12.544 16.488ZM11.104 18.664L10.6542 18.4455L10.6542 18.4455L11.104 18.664ZM10.048 16.68L10.4469 16.9816L10.4503 16.9769L10.048 16.68ZM12.576 14.024L12.9007 14.4042L12.9014 14.4036L12.576 14.024ZM16.352 11.72L16.5514 12.1785L16.5545 12.1772L16.352 11.72ZM20.736 11.228C22.5581 11.228 23.9222 11.7413 24.8944 12.7136L25.6016 12.0064C24.3978 10.8027 22.7539 10.228 20.736 10.228V11.228ZM24.898 12.717C25.8579 13.6581 26.38 15.0973 26.38 17.128H27.38C27.38 14.9347 26.8141 13.1952 25.598 12.003L24.898 12.717ZM26.38 17.128C26.38 19.0853 25.675 20.8918 24.23 22.5607L24.986 23.2153C26.5703 21.3855 27.38 19.352 27.38 17.128H26.38ZM24.23 22.5607C22.8098 24.2009 21.0382 25.012 18.88 25.012V26.012C21.3298 26.012 23.3768 25.0738 24.986 23.2153L24.23 22.5607ZM18.88 25.012C18.2365 25.012 17.7284 24.9702 17.3461 24.8937C16.9532 24.8151 16.7465 24.7102 16.6522 24.6263L15.9878 25.3737C16.2775 25.6312 16.6895 25.7822 17.1499 25.8743C17.6209 25.9685 18.2008 26.012 18.88 26.012V25.012ZM16.6736 24.6464C16.4877 24.4606 16.404 24.2562 16.404 24.008H15.404C15.404 24.5278 15.5976 24.9847 15.9664 25.3536L16.6736 24.6464ZM16.404 24.008C16.404 23.7158 16.4907 23.562 16.6081 23.4641L15.9679 22.6959C15.5733 23.0247 15.404 23.4895 15.404 24.008H16.404ZM16.6259 23.4486C16.7982 23.2906 16.9682 23.228 17.152 23.228V22.228C16.6958 22.228 16.2898 22.4001 15.9501 22.7114L16.6259 23.4486ZM17.152 23.228C17.4026 23.228 17.7831 23.3095 18.3165 23.5147L18.6755 22.5813C18.0996 22.3598 17.5841 22.228 17.152 22.228V23.228ZM18.3223 23.5169C18.948 23.7486 19.572 23.868 20.192 23.868V22.868C19.7026 22.868 19.196 22.7741 18.6697 22.5791L18.3223 23.5169ZM20.192 23.868C21.5405 23.868 22.7054 23.3186 23.6656 22.2647L22.9264 21.5913C22.1372 22.4574 21.2328 22.868 20.192 22.868V23.868ZM23.6652 22.2651C24.6521 21.1843 25.14 19.8558 25.14 18.312H24.14C24.14 19.6269 23.732 20.709 22.9268 21.5909L23.6652 22.2651ZM25.14 18.312C25.14 16.7393 24.6153 15.3611 23.5716 14.2015L22.8284 14.8705C23.7047 15.8442 24.14 16.9834 24.14 18.312H25.14ZM23.5754 14.2057C22.5349 13.0233 21.1676 12.436 19.52 12.436V13.436C20.9017 13.436 21.9878 13.9153 22.8246 14.8663L23.5754 14.2057ZM19.52 12.436C17.9107 12.436 16.4113 12.8682 15.0316 13.7276L15.5604 14.5764C16.7834 13.8145 18.1 13.436 19.52 13.436V12.436ZM14.7964 14.1324C14.54 20.6696 14.412 29.1355 14.412 39.528H15.412C15.412 29.1419 15.54 20.6904 15.7956 14.1716L14.7964 14.1324ZM14.412 39.528C14.412 40.4194 14.2682 41.0027 14.0494 41.3488C13.855 41.6563 13.5813 41.812 13.152 41.812V42.812C13.896 42.812 14.5023 42.5037 14.8946 41.8832C15.2625 41.3013 15.412 40.4926 15.412 39.528H14.412ZM13.152 41.812C12.846 41.812 12.5598 41.7005 12.2787 41.4359L11.5933 42.1641C12.0375 42.5821 12.562 42.812 13.152 42.812V41.812ZM12.2896 41.4464C12.0523 41.2091 11.924 40.904 11.924 40.488H10.924C10.924 41.1387 11.1371 41.7082 11.5824 42.1536L12.2896 41.4464ZM11.924 40.488C11.924 40.1196 12.0875 39.6441 12.5056 39.0467L11.6864 38.4733C11.2085 39.1559 10.924 39.8324 10.924 40.488H11.924ZM12.4992 39.0557C13.0231 38.3413 13.3 37.5677 13.3 36.744H12.3C12.3 37.3283 12.1076 37.8987 11.6928 38.4643L12.4992 39.0557ZM13.3 36.744C13.3 29.855 13.268 25.3352 13.2038 23.193L12.2042 23.223C12.268 25.3475 12.3 29.8517 12.3 36.744H13.3ZM13.2038 23.193C13.097 19.6277 13.044 17.3962 13.044 16.488H12.044C12.044 17.4145 12.0976 19.6629 12.2042 23.223L13.2038 23.193ZM12.1627 16.1645C11.5413 16.897 11.0372 17.6572 10.6542 18.4455L11.5538 18.8825C11.8962 18.1775 12.3521 17.487 12.9253 16.8115L12.1627 16.1645ZM10.6542 18.4455C10.4868 18.7902 10.3291 19.0114 10.1924 19.1408C10.0615 19.2646 9.9733 19.284 9.92 19.284V20.284C10.2934 20.284 10.6158 20.1167 10.8796 19.8672C11.1376 19.6232 11.3585 19.2844 11.5538 18.8825L10.6542 18.4455ZM9.92 19.284C9.71379 19.284 9.64985 19.2315 9.63192 19.2129C9.61073 19.191 9.556 19.1141 9.556 18.888H8.556C8.556 19.2593 8.64527 19.6304 8.91208 19.9071C9.18215 20.1871 9.55021 20.284 9.92 20.284V19.284ZM9.556 18.888C9.556 18.4585 9.80328 17.8327 10.4468 16.9816L9.64917 16.3784C8.97005 17.2766 8.556 18.1228 8.556 18.888H9.556ZM10.4503 16.9769C11.0849 16.1171 11.8999 15.2591 12.9007 14.4042L12.2513 13.6438C11.2041 14.5382 10.3338 15.4509 9.64571 16.3831L10.4503 16.9769ZM12.9014 14.4036C13.9032 13.5449 15.1177 12.8019 16.5514 12.1785L16.1526 11.2615C14.6423 11.9181 13.3394 12.7111 12.2506 13.6444L12.9014 14.4036ZM16.5545 12.1772C17.9931 11.5401 19.3857 11.228 20.736 11.228V10.228C19.2277 10.228 17.6976 10.5773 16.1495 11.2628L16.5545 12.1772ZM39.8803 28.712L39.4094 28.8808L39.4142 28.8932L39.8803 28.712ZM40.8083 30.28L40.4005 30.5694L40.4058 30.5769L40.4114 30.5842L40.8083 30.28ZM41.2243 32.84L41.5942 33.1763L41.6015 33.1684L41.6084 33.1601L41.2243 32.84ZM38.0243 30.472L37.5543 30.6429L37.5563 30.6482L38.0243 30.472ZM37.7683 29.768L38.2381 29.5971L37.8303 28.4757L37.3169 29.5529L37.7683 29.768ZM30.1523 32.168L29.7987 32.5216L29.8041 32.5269L29.8096 32.5321L30.1523 32.168ZM35.1123 23.464L35.136 23.9634L35.9513 23.9246L35.5464 23.2159L35.1123 23.464ZM33.6723 21.8L33.3723 22.2L33.3815 22.2069L33.3911 22.2135L33.6723 21.8ZM32.2643 21.128L32.3384 20.6335L32.3384 20.6335L32.2643 21.128ZM31.0483 21.032L31.0189 21.5311L31.0336 21.532H31.0483V21.032ZM30.3763 18.824L30.0725 18.4268L30.0667 18.4313L30.061 18.4359L30.3763 18.824ZM35.7523 20.488L36.1113 20.14L36.1113 20.14L35.7523 20.488ZM39.2723 27.016L38.7985 27.1762L38.8016 27.1847L39.2723 27.016ZM32.2323 25.928L31.9134 25.5427L31.9069 25.5484L32.2323 25.928ZM32.1363 29.96L31.7758 30.3066L31.7826 30.3136L31.7897 30.3204L32.1363 29.96ZM36.1042 29.96L36.4509 30.3205L36.4578 30.3136L36.1042 29.96ZM36.6483 26.536L36.1854 26.7253L36.1887 26.733L36.6483 26.536ZM36.2963 25.672L36.7605 25.4863L36.6991 25.3328L36.5583 25.2462L36.2963 25.672ZM39.4142 28.8932C39.5867 29.3367 39.9256 29.9002 40.4005 30.5694L41.216 29.9906C40.7522 29.3371 40.4725 28.8553 40.3463 28.5308L39.4142 28.8932ZM40.4114 30.5842C40.8909 31.2095 41.0443 31.6183 41.0443 31.848H42.0443C42.0443 31.2671 41.707 30.6305 41.2051 29.9758L40.4114 30.5842ZM41.0443 31.848C41.0443 32.1626 40.9633 32.3721 40.8401 32.5199L41.6084 33.1601C41.9118 32.7959 42.0443 32.344 42.0443 31.848H41.0443ZM40.8543 32.5037C40.7497 32.6187 40.6044 32.692 40.3603 32.692V33.692C40.8415 33.692 41.2721 33.5307 41.5942 33.1763L40.8543 32.5037ZM40.3603 32.692C40.1167 32.692 39.8304 32.5715 39.4996 32.1862C39.1645 31.7961 38.8241 31.1775 38.4922 30.2958L37.5563 30.6482C37.9071 31.5799 38.2973 32.3212 38.7409 32.8378C39.1887 33.3592 39.7291 33.692 40.3603 33.692V32.692ZM38.4941 30.3011L38.2381 29.5971L37.2984 29.9389L37.5544 30.6429L38.4941 30.3011ZM37.3169 29.5529C36.8002 30.6368 36.1702 31.4168 35.4417 31.9263C34.7175 32.4327 33.8677 32.692 32.8723 32.692V33.692C34.0528 33.692 35.107 33.3806 36.0148 32.7457C36.9183 32.1139 37.6483 31.1818 38.2196 29.9831L37.3169 29.5529ZM32.8723 32.692C31.8988 32.692 31.1186 32.3909 30.4949 31.8039L29.8096 32.5321C30.6366 33.3105 31.6697 33.692 32.8723 33.692V32.692ZM30.5058 31.8144C29.9007 31.2093 29.5963 30.4641 29.5963 29.544H28.5963C28.5963 30.7146 28.9958 31.7187 29.7987 32.5216L30.5058 31.8144ZM29.5963 29.544C29.5963 28.0498 30.1024 26.7756 31.1236 25.6955L30.3969 25.0085C29.1994 26.2751 28.5963 27.7955 28.5963 29.544H29.5963ZM31.1236 25.6955C32.1339 24.6268 33.4575 24.0434 35.136 23.9634L35.0885 22.9646C33.183 23.0553 31.6052 23.7305 30.3969 25.0085L31.1236 25.6955ZM35.5464 23.2159C35.094 22.4242 34.567 21.8038 33.9534 21.3865L33.3911 22.2135C33.8442 22.5216 34.2772 23.0104 34.6781 23.7121L35.5464 23.2159ZM33.9723 21.4C33.4236 20.9885 32.8772 20.7143 32.3384 20.6335L32.1901 21.6225C32.5047 21.6697 32.8969 21.8435 33.3723 22.2L33.9723 21.4ZM32.3384 20.6335C31.8902 20.5663 31.4599 20.532 31.0483 20.532V21.532C31.4046 21.532 31.785 21.5617 32.1901 21.6225L32.3384 20.6335ZM31.0776 20.5329C30.7724 20.5149 30.5842 20.4456 30.471 20.3664L29.8975 21.1856C30.211 21.4051 30.5987 21.5064 31.0189 21.5311L31.0776 20.5329ZM30.471 20.3664C30.459 20.358 30.3643 20.2808 30.3643 19.912H29.3643C29.3643 20.3965 29.4828 20.8953 29.8975 21.1856L30.471 20.3664ZM30.3643 19.912C30.3643 19.6113 30.4696 19.3924 30.6915 19.2121L30.061 18.4359C29.6003 18.8103 29.3643 19.3167 29.3643 19.912H30.3643ZM30.68 19.2212C30.9487 19.0157 31.2666 18.908 31.6562 18.908V17.908C31.0645 17.908 30.5291 18.0777 30.0725 18.4268L30.68 19.2212ZM31.6562 18.908C32.8615 18.908 34.1056 19.5075 35.3932 20.836L36.1113 20.14C34.7109 18.6952 33.2243 17.908 31.6562 17.908V18.908ZM35.3932 20.836C36.6632 22.1462 37.8066 24.2425 38.7986 27.1762L39.7459 26.8558C38.7325 23.8588 37.5293 21.6031 36.1113 20.14L35.3932 20.836ZM38.8016 27.1847L39.4096 28.8807L40.3509 28.5433L39.7429 26.8473L38.8016 27.1847ZM34.3123 24.66C33.4222 24.66 32.6174 24.9603 31.9135 25.5428L32.551 26.3132C33.0845 25.8717 33.6663 25.66 34.3123 25.66V24.66ZM31.9069 25.5484C31.1949 26.1586 30.8363 26.9605 30.8363 27.912H31.8363C31.8363 27.2422 32.0749 26.7214 32.5576 26.3076L31.9069 25.5484ZM30.8363 27.912C30.8363 28.8442 31.1478 29.6534 31.7758 30.3066L32.4967 29.6134C32.0581 29.1573 31.8363 28.6011 31.8363 27.912H30.8363ZM31.7897 30.3204C32.4373 30.9431 33.2228 31.26 34.1203 31.26V30.26C33.4817 30.26 32.9445 30.0436 32.4828 29.5996L31.7897 30.3204ZM34.1203 31.26C35.0177 31.26 35.8032 30.9431 36.4508 30.3204L35.7577 29.5996C35.296 30.0436 34.7588 30.26 34.1203 30.26V31.26ZM36.4578 30.3136C37.101 29.6704 37.4363 28.8946 37.4363 28.008H36.4363C36.4363 28.6148 36.2169 29.1403 35.7507 29.6064L36.4578 30.3136ZM37.4363 28.008C37.4363 27.4134 37.3289 26.8549 37.1078 26.339L36.1887 26.733C36.3516 27.1131 36.4363 27.536 36.4363 28.008H37.4363ZM37.111 26.3467C36.9187 25.8766 36.8023 25.5907 36.7605 25.4863L35.832 25.8577C35.8756 25.9666 35.9938 26.2568 36.1855 26.7253L37.111 26.3467ZM36.5583 25.2462C35.9117 24.8482 35.156 24.66 34.3123 24.66V25.66C35.0045 25.66 35.5715 25.8131 36.0342 26.0978L36.5583 25.2462ZM56.7118 28.424L57.2014 28.3227L57.2 28.3161L56.7118 28.424ZM57.5438 30.088L57.1664 30.4161L57.1741 30.4248L57.1821 30.4332L57.5438 30.088ZM57.7038 32.744L58.033 33.1203L58.0395 33.1146L58.0457 33.1088L57.7038 32.744ZM55.5918 32.968L55.8437 32.5361L55.8437 32.5361L55.5918 32.968ZM54.9518 32.296L54.5088 32.528L54.5131 32.5361L54.5176 32.5441L54.9518 32.296ZM54.4078 30.664L54.8981 30.5659L54.897 30.561L54.4078 30.664ZM52.9998 23.976L53.489 23.873L53.4883 23.8698L52.9998 23.976ZM51.9758 21.64L51.581 21.947L51.5881 21.9558L51.9758 21.64ZM47.6558 21.768L47.2665 21.4541L47.2653 21.4557L47.6558 21.768ZM46.8558 23.88L46.3559 23.8661L46.3555 23.8815L46.356 23.8969L46.8558 23.88ZM46.7278 32.776L47.0952 33.1151L47.1014 33.1084L47.1074 33.1014L46.7278 32.776ZM44.6798 32.776L44.3134 33.1162L44.326 33.1298L44.3395 33.1424L44.6798 32.776ZM44.4238 26.632L44.9233 26.6535L44.9233 26.6533L44.4238 26.632ZM44.4238 15.336L44.9232 15.3129L44.9232 15.3129L44.4238 15.336ZM44.6798 9.448L44.3262 9.09444L44.3197 9.10099L44.3134 9.10777L44.6798 9.448ZM46.7278 9.448L46.3481 9.77339L46.3541 9.78038L46.3603 9.78714L46.7278 9.448ZM46.9518 15.4L46.4522 15.3777L46.4521 15.382L46.9518 15.4ZM46.8238 21.224H46.3238V22.8676L47.239 21.5024L46.8238 21.224ZM55.4958 22.92L55.0067 23.0241L55.0075 23.0279L55.4958 22.92ZM56.2221 28.5253C56.368 29.2305 56.6852 29.8627 57.1664 30.4161L57.9211 29.7599C57.5489 29.332 57.3115 28.8549 57.2014 28.3227L56.2221 28.5253ZM57.1821 30.4332C57.5707 30.8404 57.7158 31.203 57.7158 31.528H58.7158C58.7158 30.8716 58.4128 30.2743 57.9054 29.7428L57.1821 30.4332ZM57.7158 31.528C57.7158 31.888 57.5969 32.1588 57.3618 32.3792L58.0457 33.1088C58.4933 32.6892 58.7158 32.1493 58.7158 31.528H57.7158ZM57.3745 32.3677C57.1127 32.5968 56.8534 32.692 56.5838 32.692V33.692C57.1248 33.692 57.6121 33.4885 58.033 33.1203L57.3745 32.3677ZM56.5838 32.692C56.2357 32.692 56.0001 32.6274 55.8437 32.5361L55.3398 33.3999C55.6954 33.6073 56.1211 33.692 56.5838 33.692V32.692ZM55.8437 32.5361C55.6749 32.4377 55.5201 32.2828 55.3859 32.0479L54.5176 32.5441C54.7248 32.9066 54.9966 33.1997 55.3398 33.3999L55.8437 32.5361ZM55.3947 32.064C55.1874 31.6683 55.0193 31.172 54.898 30.5659L53.9175 30.7621C54.0522 31.436 54.2468 32.0277 54.5088 32.528L55.3947 32.064ZM54.897 30.561L53.489 23.873L52.5105 24.079L53.9185 30.767L54.897 30.561ZM53.4883 23.8698C53.2639 22.8373 52.8967 21.9787 52.3634 21.3242L51.5881 21.9558C51.9935 22.4533 52.3089 23.152 52.5112 24.0822L53.4883 23.8698ZM52.3704 21.333C51.7995 20.5989 50.9253 20.276 49.8638 20.276V21.276C50.7222 21.276 51.256 21.5291 51.5811 21.947L52.3704 21.333ZM49.8638 20.276C48.7919 20.276 47.9056 20.6617 47.2665 21.4541L48.045 22.0819C48.4726 21.5516 49.0583 21.276 49.8638 21.276V20.276ZM47.2653 21.4557C46.6902 22.1746 46.3805 22.9819 46.3559 23.8661L47.3556 23.8939C47.3737 23.2421 47.5973 22.6414 48.0462 22.0803L47.2653 21.4557ZM46.356 23.8969C46.527 28.9617 46.6118 31.6245 46.6118 31.912H47.6118C47.6118 31.6022 47.5258 28.9103 47.3555 23.8631L46.356 23.8969ZM46.6118 31.912C46.6118 32.0285 46.5585 32.2051 46.3481 32.4506L47.1074 33.1014C47.409 32.7496 47.6118 32.3502 47.6118 31.912H46.6118ZM46.3603 32.4369C46.2066 32.6035 46.0131 32.692 45.7358 32.692V33.692C46.2691 33.692 46.7369 33.5032 47.0952 33.1151L46.3603 32.4369ZM45.7358 32.692C45.4574 32.692 45.2267 32.6016 45.02 32.4096L44.3395 33.1424C44.7301 33.5051 45.2034 33.692 45.7358 33.692V32.692ZM45.0461 32.4358C44.8946 32.2725 44.7638 31.9455 44.7638 31.336H43.7638C43.7638 32.0492 43.9103 32.6821 44.3134 33.1162L45.0461 32.4358ZM44.7638 31.336C44.7638 30.6878 44.8165 29.1317 44.9233 26.6535L43.9242 26.6105C43.8177 29.0816 43.7638 30.6616 43.7638 31.336H44.7638ZM44.9233 26.6533C45.0301 24.155 45.0838 22.216 45.0838 20.84H44.0838C44.0838 22.1947 44.0308 24.117 43.9242 26.6107L44.9233 26.6533ZM45.0838 20.84C45.0838 19.4635 45.03 17.6201 44.9232 15.3129L43.9243 15.3591C44.0308 17.6599 44.0838 19.4858 44.0838 20.84H45.0838ZM44.9232 15.3129C44.8164 13.0057 44.7638 11.5354 44.7638 10.888H43.7638C43.7638 11.5632 43.8178 13.0583 43.9243 15.3591L44.9232 15.3129ZM44.7638 10.888C44.7638 10.2785 44.8946 9.95146 45.0461 9.78822L44.3134 9.10777C43.9103 9.54187 43.7638 10.1748 43.7638 10.888H44.7638ZM45.0333 9.80155C45.2426 9.59226 45.4691 9.5 45.7358 9.5V8.5C45.1917 8.5 44.7142 8.70641 44.3262 9.09444L45.0333 9.80155ZM45.7358 9.5C46.0002 9.5 46.1904 9.58936 46.3481 9.77339L47.1074 9.1226C46.7531 8.7093 46.282 8.5 45.7358 8.5V9.5ZM46.3603 9.78714C46.4865 9.92384 46.6118 10.2339 46.6118 10.856H47.6118C47.6118 10.1554 47.481 9.52683 47.0952 9.10886L46.3603 9.78714ZM46.6118 10.856C46.6118 11.4825 46.5591 12.9847 46.4522 15.3777L47.4513 15.4223C47.5578 13.0366 47.6118 11.5095 47.6118 10.856H46.6118ZM46.4521 15.382C46.3666 17.7531 46.3238 19.701 46.3238 21.224H47.3238C47.3238 19.7177 47.3662 17.7829 47.4514 15.418L46.4521 15.382ZM47.239 21.5024C48.4431 19.7066 49.7583 18.908 51.1758 18.908V17.908C49.3078 17.908 47.7218 18.9867 46.4085 20.9456L47.239 21.5024ZM51.1758 18.908C52.1709 18.908 52.9566 19.2363 53.5746 19.8818C54.2066 20.5419 54.6974 21.5703 55.0067 23.0241L55.9848 22.8159C55.6541 21.2617 55.1049 20.0341 54.2969 19.1902C53.4749 18.3317 52.4206 17.908 51.1758 17.908V18.908ZM55.0075 23.0279L56.2235 28.5319L57.2 28.3161L55.984 22.8121L55.0075 23.0279ZM61.6158 23.592L61.1164 23.6183L61.6158 23.592ZM61.8718 18.952L61.4858 18.6341L61.4837 18.6367L61.8718 18.952ZM63.9198 18.92L63.5198 19.22L63.5244 19.2262L63.5293 19.2323L63.9198 18.92ZM64.0798 23.528L64.5772 23.5785L64.5773 23.5778L64.0798 23.528ZM64.2398 29.992L63.7802 30.189L63.7845 30.199L63.7892 30.2089L64.2398 29.992ZM64.2398 32.744L63.8734 32.4038L63.8666 32.4111L63.8601 32.4186L64.2398 32.744ZM62.1278 32.424L61.6732 32.6323L62.1278 32.424ZM61.6798 14.408L62.0189 14.0406L62.0189 14.0406L61.6798 14.408ZM61.7758 12.04L62.1293 12.3936L62.1347 12.3882L62.1399 12.3827L61.7758 12.04ZM64.1118 11.912L63.7582 12.2656L63.7718 12.2791L63.7864 12.2916L64.1118 11.912ZM64.0158 14.28L63.6731 13.9159L63.6676 13.9211L63.6622 13.9264L64.0158 14.28ZM62.2758 30.664C62.2758 27.9699 62.2223 25.6034 62.1151 23.5657L61.1164 23.6183C61.2225 25.6339 61.2758 27.9821 61.2758 30.664H62.2758ZM62.1151 23.5657C62.008 21.5314 61.9557 20.3539 61.9557 20.008H60.9557C60.9557 20.3874 61.0102 21.5993 61.1164 23.6183L62.1151 23.5657ZM61.9557 20.008C61.9557 19.7831 62.0389 19.5391 62.2598 19.2673L61.4837 18.6367C61.1499 19.0475 60.9557 19.5075 60.9557 20.008H61.9557ZM62.2577 19.2699C62.4783 19.002 62.6965 18.908 62.9278 18.908V17.908C62.3483 17.908 61.8625 18.1767 61.4858 18.6341L62.2577 19.2699ZM62.9278 18.908C63.1663 18.908 63.3524 18.9968 63.5198 19.22L64.3198 18.62C63.9751 18.1605 63.4999 17.908 62.9278 17.908V18.908ZM63.5293 19.2323C63.6842 19.426 63.8038 19.7734 63.8038 20.36H64.8038C64.8038 19.6666 64.6673 19.054 64.3102 18.6077L63.5293 19.2323ZM63.8038 20.36C63.8038 20.9511 63.7316 21.9848 63.5822 23.4782L64.5773 23.5778C64.7266 22.0845 64.8038 21.0063 64.8038 20.36H63.8038ZM63.5823 23.4775C63.4311 24.9676 63.3558 26.5205 63.3558 28.136H64.3558C64.3558 26.5515 64.4297 25.0324 64.5772 23.5785L63.5823 23.4775ZM63.3558 28.136C63.3558 28.8448 63.4979 29.5304 63.7802 30.189L64.6993 29.795C64.4696 29.259 64.3558 28.7072 64.3558 28.136H63.3558ZM63.7892 30.2089C64.0435 30.7369 64.1558 31.1956 64.1558 31.592H65.1558C65.1558 31.0071 64.9907 30.3991 64.6903 29.7751L63.7892 30.2089ZM64.1558 31.592C64.1558 31.9556 64.0518 32.2116 63.8734 32.4038L64.6061 33.0842C64.9824 32.6791 65.1558 32.167 65.1558 31.592H64.1558ZM63.8601 32.4186C63.7176 32.5849 63.5061 32.692 63.1518 32.692V33.692C63.736 33.692 64.2499 33.5004 64.6194 33.0694L63.8601 32.4186ZM63.1518 32.692C63.0302 32.692 62.9394 32.6597 62.8598 32.6C62.7737 32.5355 62.6756 32.4193 62.5823 32.2157L61.6732 32.6323C61.8146 32.9407 62.0045 33.2085 62.2598 33.4C62.5215 33.5963 62.8253 33.692 63.1518 33.692V32.692ZM62.5823 32.2157C62.3823 31.7794 62.2758 31.2658 62.2758 30.664H61.2758C61.2758 31.3848 61.4038 32.0446 61.6732 32.6323L62.5823 32.2157ZM62.7998 14.292C62.4241 14.292 62.1828 14.1919 62.0189 14.0406L61.3406 14.7754C61.7314 15.1361 62.2367 15.292 62.7998 15.292V14.292ZM62.0189 14.0406C61.8726 13.9056 61.7638 13.6833 61.7638 13.288H60.7638C60.7638 13.874 60.9322 14.3984 61.3406 14.7754L62.0189 14.0406ZM61.7638 13.288C61.7638 12.9275 61.8835 12.6394 62.1293 12.3936L61.4222 11.6864C60.9854 12.1233 60.7638 12.6672 60.7638 13.288H61.7638ZM62.1399 12.3827C62.3932 12.1135 62.6695 11.996 62.9918 11.996V10.996C62.3754 10.996 61.841 11.2411 61.4116 11.6973L62.1399 12.3827ZM62.9918 11.996C63.3564 11.996 63.5927 12.1 63.7582 12.2656L64.4653 11.5584C64.0761 11.1693 63.5658 10.996 62.9918 10.996V11.996ZM63.7864 12.2916C63.9476 12.4298 64.0598 12.6482 64.0598 13.032H65.0598C65.0598 12.4345 64.8733 11.9062 64.4371 11.5324L63.7864 12.2916ZM64.0598 13.032C64.0598 13.3825 63.937 13.6674 63.6731 13.9159L64.3584 14.6441C64.8198 14.2099 65.0598 13.6629 65.0598 13.032H64.0598ZM63.6622 13.9264C63.4116 14.177 63.1323 14.292 62.7998 14.292V15.292C63.4059 15.292 63.9372 15.0657 64.3693 14.6336L63.6622 13.9264ZM71.9585 25.48L71.4606 25.4347L71.4575 25.4684L71.459 25.5021L71.9585 25.48ZM72.2145 31.272H72.7145V31.261L72.714 31.2499L72.2145 31.272ZM71.7665 32.68L71.3805 32.3621L71.3784 32.3647L71.7665 32.68ZM69.7505 32.712L69.3505 33.012L69.3552 33.0182L69.3601 33.0243L69.7505 32.712ZM69.5265 28.872L70.024 28.9218L70.024 28.9218L69.5265 28.872ZM69.2385 21.64L68.8179 21.9104L68.8236 21.9192L68.8296 21.9277L69.2385 21.64ZM69.1425 18.888L69.4837 19.2535L69.49 19.2476L69.4961 19.2416L69.1425 18.888ZM71.8305 22.184H71.3305V24.1136L72.2676 22.4268L71.8305 22.184ZM74.1345 19.432L74.4375 19.8297L74.4375 19.8297L74.1345 19.432ZM78.2945 18.984L77.9409 19.3376L77.9508 19.3474L77.9611 19.3566L78.2945 18.984ZM78.4545 22.024L78.8571 22.3207L78.8641 22.3107L78.4545 22.024ZM76.6945 22.376L76.3208 22.7082L76.3403 22.7302L76.3623 22.7497L76.6945 22.376ZM76.3105 21.8L75.8463 21.9857L75.8498 21.9945L75.8536 22.0031L76.3105 21.8ZM75.8305 21.224L75.5139 21.611L75.5249 21.62L75.5364 21.6284L75.8305 21.224ZM71.459 25.5021L71.715 31.2941L72.714 31.2499L72.458 25.4579L71.459 25.5021ZM71.7145 31.272C71.7145 31.7591 71.5899 32.1079 71.3805 32.3621L72.1525 32.9979C72.5404 32.5268 72.7145 31.9369 72.7145 31.272H71.7145ZM71.3784 32.3647C71.1868 32.6005 70.9832 32.692 70.7425 32.692V33.692C71.3124 33.692 71.7915 33.4421 72.1546 32.9953L71.3784 32.3647ZM70.7425 32.692C70.491 32.692 70.3033 32.6026 70.1409 32.3997L69.3601 33.0243C69.7097 33.4614 70.1833 33.692 70.7425 33.692V32.692ZM70.1505 32.412C69.9788 32.183 69.8665 31.8413 69.8665 31.336H68.8665C68.8665 31.9827 69.0102 32.5583 69.3505 33.012L70.1505 32.412ZM69.8665 31.336C69.8665 30.7851 69.9179 29.9834 70.024 28.9218L69.029 28.8222C68.9218 29.894 68.8665 30.7349 68.8665 31.336H69.8665ZM70.024 28.9218C70.2383 26.7786 70.3465 24.9582 70.3465 23.464H69.3465C69.3465 24.9138 69.2413 26.6987 69.029 28.8222L70.024 28.9218ZM70.3465 23.464C70.3465 22.7107 70.1058 22.0036 69.6474 21.3523L68.8296 21.9277C69.1819 22.4284 69.3465 22.9373 69.3465 23.464H70.3465ZM69.6591 21.3696C69.3022 20.8144 69.1625 20.3761 69.1625 20.04H68.1625C68.1625 20.6426 68.4068 21.2709 68.8179 21.9104L69.6591 21.3696ZM69.1625 20.04C69.1625 19.6981 69.2729 19.4503 69.4837 19.2535L68.8013 18.5225C68.3721 18.9231 68.1625 19.4433 68.1625 20.04H69.1625ZM69.4961 19.2416C69.7342 19.0034 69.9738 18.908 70.2305 18.908V17.908C69.6766 17.908 69.1908 18.1326 68.7889 18.5344L69.4961 19.2416ZM70.2305 18.908C70.6068 18.908 70.8404 19.0426 71.008 19.3074C71.2 19.6108 71.3305 20.13 71.3305 20.936H72.3305C72.3305 20.0567 72.1943 19.3118 71.853 18.7726C71.4873 18.1947 70.9209 17.908 70.2305 17.908V18.908ZM71.3305 20.936V22.184H72.3305V20.936H71.3305ZM72.2676 22.4268C72.8797 21.325 73.6049 20.4641 74.4375 19.8297L73.8315 19.0343C72.8721 19.7653 72.0613 20.739 71.3934 21.9412L72.2676 22.4268ZM74.4375 19.8297C75.2885 19.1813 76.0045 18.908 76.5985 18.908V17.908C75.6992 17.908 74.7725 18.3173 73.8315 19.0343L74.4375 19.8297ZM76.5985 18.908C77.2634 18.908 77.6814 19.078 77.9409 19.3376L78.6481 18.6304C78.1396 18.122 77.427 17.908 76.5985 17.908V18.908ZM77.9611 19.3566C78.2453 19.6109 78.4025 19.9579 78.4025 20.456H79.4025C79.4025 19.7167 79.1544 19.0824 78.6279 18.6114L77.9611 19.3566ZM78.4025 20.456C78.4025 20.9918 78.2743 21.4095 78.0449 21.7373L78.8641 22.3107C79.232 21.7852 79.4025 21.1575 79.4025 20.456H78.4025ZM78.052 21.7274C77.8007 22.0684 77.6118 22.132 77.4945 22.132V23.132C78.0599 23.132 78.511 22.7902 78.857 22.3206L78.052 21.7274ZM77.4945 22.132C77.2347 22.132 77.1006 22.068 77.0267 22.0023L76.3623 22.7497C76.6724 23.0253 77.0716 23.132 77.4945 23.132V22.132ZM77.0682 22.0438C76.9244 21.8821 76.8278 21.7327 76.7674 21.5969L75.8536 22.0031C75.9639 22.2513 76.1232 22.4859 76.3208 22.7082L77.0682 22.0438ZM76.7747 21.6143C76.6463 21.2932 76.4156 21.0312 76.1246 20.8196L75.5364 21.6284C75.7148 21.7581 75.804 21.8801 75.8463 21.9857L76.7747 21.6143ZM76.1471 20.837C75.8064 20.5583 75.389 20.436 74.9345 20.436V21.436C75.2053 21.436 75.3852 21.5057 75.5139 21.611L76.1471 20.837ZM74.9345 20.436C74.0814 20.436 73.3334 20.9938 72.681 21.8487L73.476 22.4553C74.0609 21.6888 74.5503 21.436 74.9345 21.436V20.436ZM72.681 21.8487C71.9872 22.7578 71.5939 23.9678 71.4606 25.4347L72.4564 25.5253C72.5791 24.1762 72.9325 23.1675 73.476 22.4553L72.681 21.8487ZM91.7553 28.712L91.2844 28.8808L91.2892 28.8932L91.7553 28.712ZM92.6833 30.28L92.2755 30.5694L92.2808 30.5769L92.2864 30.5842L92.6833 30.28ZM93.0993 32.84L93.4692 33.1763L93.4765 33.1684L93.4834 33.1601L93.0993 32.84ZM89.8993 30.472L89.4293 30.6429L89.4313 30.6482L89.8993 30.472ZM89.6433 29.768L90.1131 29.5971L89.7053 28.4757L89.1919 29.5529L89.6433 29.768ZM82.0273 32.168L81.6737 32.5216L81.6791 32.5269L81.6846 32.5321L82.0273 32.168ZM86.9873 23.464L87.011 23.9634L87.8263 23.9246L87.4214 23.2159L86.9873 23.464ZM85.5473 21.8L85.2473 22.2L85.2565 22.2069L85.2661 22.2135L85.5473 21.8ZM84.1393 21.128L84.2134 20.6335L84.2134 20.6335L84.1393 21.128ZM82.9233 21.032L82.8939 21.5311L82.9086 21.532H82.9233V21.032ZM82.2513 18.824L81.9475 18.4268L81.9417 18.4313L81.936 18.4359L82.2513 18.824ZM87.6273 20.488L87.9863 20.14L87.9863 20.14L87.6273 20.488ZM91.1473 27.016L90.6735 27.1762L90.6766 27.1847L91.1473 27.016ZM84.1073 25.928L83.7884 25.5427L83.7819 25.5484L84.1073 25.928ZM84.0113 29.96L83.6508 30.3066L83.6576 30.3136L83.6647 30.3204L84.0113 29.96ZM87.9792 29.96L88.3259 30.3205L88.3328 30.3136L87.9792 29.96ZM88.5233 26.536L88.0604 26.7253L88.0637 26.733L88.5233 26.536ZM88.1713 25.672L88.6355 25.4863L88.5741 25.3328L88.4333 25.2462L88.1713 25.672ZM91.2892 28.8932C91.4617 29.3367 91.8006 29.9002 92.2755 30.5694L93.091 29.9906C92.6272 29.3371 92.3475 28.8553 92.2213 28.5308L91.2892 28.8932ZM92.2864 30.5842C92.7659 31.2095 92.9193 31.6183 92.9193 31.848H93.9193C93.9193 31.2671 93.582 30.6305 93.0801 29.9758L92.2864 30.5842ZM92.9193 31.848C92.9193 32.1626 92.8383 32.3721 92.7151 32.5199L93.4834 33.1601C93.7868 32.7959 93.9193 32.344 93.9193 31.848H92.9193ZM92.7293 32.5037C92.6247 32.6187 92.4794 32.692 92.2353 32.692V33.692C92.7165 33.692 93.1471 33.5307 93.4692 33.1763L92.7293 32.5037ZM92.2353 32.692C91.9917 32.692 91.7054 32.5715 91.3746 32.1862C91.0395 31.7961 90.6991 31.1775 90.3672 30.2958L89.4313 30.6482C89.7821 31.5799 90.1723 32.3212 90.6159 32.8378C91.0637 33.3592 91.6041 33.692 92.2353 33.692V32.692ZM90.3691 30.3011L90.1131 29.5971L89.1734 29.9389L89.4294 30.6429L90.3691 30.3011ZM89.1919 29.5529C88.6752 30.6368 88.0452 31.4168 87.3167 31.9263C86.5925 32.4327 85.7427 32.692 84.7473 32.692V33.692C85.9278 33.692 86.982 33.3806 87.8898 32.7457C88.7933 32.1139 89.5233 31.1818 90.0946 29.9831L89.1919 29.5529ZM84.7473 32.692C83.7738 32.692 82.9936 32.3909 82.3699 31.8039L81.6846 32.5321C82.5116 33.3105 83.5447 33.692 84.7473 33.692V32.692ZM82.3808 31.8144C81.7757 31.2093 81.4713 30.4641 81.4713 29.544H80.4713C80.4713 30.7146 80.8708 31.7187 81.6737 32.5216L82.3808 31.8144ZM81.4713 29.544C81.4713 28.0498 81.9774 26.7756 82.9986 25.6955L82.2719 25.0085C81.0744 26.2751 80.4713 27.7955 80.4713 29.544H81.4713ZM82.9986 25.6955C84.0089 24.6268 85.3325 24.0434 87.011 23.9634L86.9635 22.9646C85.058 23.0553 83.4802 23.7305 82.2719 25.0085L82.9986 25.6955ZM87.4214 23.2159C86.969 22.4242 86.442 21.8038 85.8284 21.3865L85.2661 22.2135C85.7192 22.5216 86.1522 23.0104 86.5531 23.7121L87.4214 23.2159ZM85.8473 21.4C85.2986 20.9885 84.7522 20.7143 84.2134 20.6335L84.0651 21.6225C84.3797 21.6697 84.7719 21.8435 85.2473 22.2L85.8473 21.4ZM84.2134 20.6335C83.7652 20.5663 83.3349 20.532 82.9233 20.532V21.532C83.2796 21.532 83.66 21.5617 84.0651 21.6225L84.2134 20.6335ZM82.9526 20.5329C82.6474 20.5149 82.4592 20.4456 82.346 20.3664L81.7725 21.1856C82.086 21.4051 82.4737 21.5064 82.8939 21.5311L82.9526 20.5329ZM82.346 20.3664C82.334 20.358 82.2393 20.2808 82.2393 19.912H81.2393C81.2393 20.3965 81.3578 20.8953 81.7725 21.1856L82.346 20.3664ZM82.2393 19.912C82.2393 19.6113 82.3446 19.3924 82.5665 19.2121L81.936 18.4359C81.4753 18.8103 81.2393 19.3167 81.2393 19.912H82.2393ZM82.555 19.2212C82.8237 19.0157 83.1416 18.908 83.5312 18.908V17.908C82.9395 17.908 82.4041 18.0777 81.9475 18.4268L82.555 19.2212ZM83.5312 18.908C84.7365 18.908 85.9806 19.5075 87.2682 20.836L87.9863 20.14C86.5859 18.6952 85.0993 17.908 83.5312 17.908V18.908ZM87.2682 20.836C88.5382 22.1462 89.6816 24.2425 90.6736 27.1762L91.6209 26.8558C90.6075 23.8588 89.4043 21.6031 87.9863 20.14L87.2682 20.836ZM90.6766 27.1847L91.2846 28.8807L92.2259 28.5433L91.6179 26.8473L90.6766 27.1847ZM86.1873 24.66C85.2972 24.66 84.4924 24.9603 83.7885 25.5428L84.426 26.3132C84.9595 25.8717 85.5413 25.66 86.1873 25.66V24.66ZM83.7819 25.5484C83.0699 26.1586 82.7113 26.9605 82.7113 27.912H83.7113C83.7113 27.2422 83.9499 26.7214 84.4326 26.3076L83.7819 25.5484ZM82.7113 27.912C82.7113 28.8442 83.0228 29.6534 83.6508 30.3066L84.3717 29.6134C83.9331 29.1573 83.7113 28.6011 83.7113 27.912H82.7113ZM83.6647 30.3204C84.3123 30.9431 85.0978 31.26 85.9953 31.26V30.26C85.3567 30.26 84.8195 30.0436 84.3578 29.5996L83.6647 30.3204ZM85.9953 31.26C86.8927 31.26 87.6782 30.9431 88.3258 30.3204L87.6327 29.5996C87.171 30.0436 86.6338 30.26 85.9953 30.26V31.26ZM88.3328 30.3136C88.976 29.6704 89.3113 28.8946 89.3113 28.008H88.3113C88.3113 28.6148 88.0919 29.1403 87.6257 29.6064L88.3328 30.3136ZM89.3113 28.008C89.3113 27.4134 89.2039 26.8549 88.9828 26.339L88.0637 26.733C88.2266 27.1131 88.3113 27.536 88.3113 28.008H89.3113ZM88.986 26.3467C88.7937 25.8766 88.6773 25.5907 88.6355 25.4863L87.707 25.8577C87.7506 25.9666 87.8688 26.2568 88.0605 26.7253L88.986 26.3467ZM88.4333 25.2462C87.7867 24.8482 87.031 24.66 86.1873 24.66V25.66C86.8795 25.66 87.4465 25.8131 87.9092 26.0978L88.4333 25.2462ZM98.7948 23.848L98.2963 23.8086L98.2943 23.8344L98.2949 23.8603L98.7948 23.848ZM98.9868 31.656H99.4869L99.4866 31.6437L98.9868 31.656ZM98.6028 32.776L98.9702 33.1151L98.9764 33.1084L98.9824 33.1014L98.6028 32.776ZM96.5548 32.776L96.1884 33.1162L96.201 33.1298L96.2145 33.1424L96.5548 32.776ZM96.1388 31.656L95.6391 31.6383L95.6388 31.6472V31.656H96.1388ZM96.3628 25.32L96.8624 25.3377L96.8631 25.3184L96.8623 25.2991L96.3628 25.32ZM96.1388 19.976H95.6388V19.9865L95.6392 19.9969L96.1388 19.976ZM96.5548 18.856L96.2012 18.5024L96.1947 18.509L96.1884 18.5158L96.5548 18.856ZM98.6028 18.856L98.2231 19.1814L98.2291 19.1884L98.2353 19.1951L98.6028 18.856ZM98.9548 20.872L98.4572 20.8222L98.2736 22.6587L99.3591 21.1661L98.9548 20.872ZM107.403 22.92L106.914 23.0241L106.915 23.0279L107.403 22.92ZM108.619 28.424L108.131 28.5319L108.133 28.5411L108.135 28.5502L108.619 28.424ZM109.387 30.024L108.971 30.3014L108.977 30.3103L108.983 30.319L109.387 30.024ZM106.315 30.664L105.823 30.7534L105.824 30.7573L106.315 30.664ZM105.099 23.976L105.591 23.8866L105.59 23.8827L105.099 23.976ZM99.6588 21.704L99.2736 21.3852L99.2736 21.3852L99.6588 21.704ZM98.2949 23.8603L98.4869 31.6683L99.4866 31.6437L99.2946 23.8357L98.2949 23.8603ZM98.4868 31.656C98.4868 32.0023 98.3907 32.2551 98.2231 32.4506L98.9824 33.1014C99.3268 32.6996 99.4868 32.2057 99.4868 31.656H98.4868ZM98.2353 32.4369C98.0816 32.6035 97.8881 32.692 97.6108 32.692V33.692C98.1441 33.692 98.6119 33.5032 98.9702 33.1151L98.2353 32.4369ZM97.6108 32.692C97.3324 32.692 97.1017 32.6016 96.895 32.4096L96.2145 33.1424C96.6051 33.5051 97.0784 33.692 97.6108 33.692V32.692ZM96.9211 32.4358C96.7385 32.2391 96.6388 31.9914 96.6388 31.656H95.6388C95.6388 32.2166 95.8163 32.7156 96.1884 33.1162L96.9211 32.4358ZM96.6384 31.6737L96.8624 25.3377L95.8631 25.3023L95.6391 31.6383L96.6384 31.6737ZM96.3628 25.32C96.8623 25.2991 96.8623 25.2991 96.8623 25.299C96.8623 25.299 96.8623 25.299 96.8623 25.299C96.8623 25.299 96.8623 25.2989 96.8623 25.2989C96.8623 25.2988 96.8623 25.2988 96.8623 25.2987C96.8623 25.2987 96.8623 25.2986 96.8623 25.2986C96.8623 25.2985 96.8623 25.2984 96.8623 25.2983C96.8623 25.2983 96.8623 25.2979 96.8623 25.2978C96.8623 25.2976 96.8622 25.2975 96.8622 25.2974C96.8622 25.2973 96.8622 25.2972 96.8622 25.297C96.8622 25.2969 96.8622 25.2967 96.8622 25.2966C96.8622 25.2964 96.8622 25.2963 96.8622 25.2961C96.8622 25.2954 96.8621 25.2948 96.8621 25.2938C96.8621 25.2932 96.8621 25.2931 96.862 25.2925C96.862 25.2921 96.862 25.2913 96.862 25.2909C96.862 25.2906 96.8619 25.2904 96.8619 25.2901C96.8619 25.2898 96.8619 25.2895 96.8619 25.2892C96.8619 25.2891 96.8618 25.2874 96.8618 25.2873C96.8617 25.2845 96.8616 25.2819 96.8614 25.2782C96.8609 25.2661 96.861 25.2677 96.8603 25.2521C96.8597 25.2358 96.8603 25.2522 96.8596 25.2351C96.8596 25.2344 96.8596 25.2336 96.8595 25.2328C96.8595 25.2321 96.8595 25.2313 96.8594 25.2305C96.8593 25.2266 96.8594 25.2296 96.8592 25.2257C96.8591 25.2222 96.859 25.2193 96.8588 25.2156C96.8587 25.2134 96.8571 25.1743 96.8568 25.1686C96.8564 25.1572 96.8568 25.1669 96.8563 25.1552C96.8554 25.1338 96.8566 25.1628 96.8557 25.1412C96.8555 25.1355 96.8547 25.1177 96.8544 25.1112C96.8539 25.0992 96.8543 25.1074 96.8538 25.0952C96.8532 25.081 96.854 25.1012 96.8534 25.087C96.8532 25.0808 96.8533 25.0848 96.8531 25.0786C96.853 25.0771 96.8517 25.0457 96.8516 25.0433C96.8516 25.0431 96.8501 25.0066 96.85 25.0055C96.8497 24.9987 96.8486 24.9728 96.8483 24.9651C96.8482 24.9634 96.8466 24.9245 96.8465 24.922C96.8459 24.907 96.8467 24.9259 96.846 24.9108C96.8456 24.9003 96.846 24.9101 96.8456 24.8995C96.845 24.8862 96.8452 24.8898 96.8446 24.8763C96.8431 24.8401 96.8451 24.889 96.8436 24.8525C96.843 24.8385 96.8437 24.8545 96.8431 24.8404C96.8425 24.8265 96.8432 24.842 96.8426 24.8281C96.8425 24.8261 96.8406 24.7801 96.8404 24.7772C96.8388 24.7373 96.8331 24.6013 96.8308 24.5476C96.8302 24.5328 96.8308 24.5466 96.8302 24.5318C96.8301 24.5311 96.8295 24.5167 96.8295 24.5159C96.8293 24.5126 96.829 24.5032 96.8288 24.4999C96.8282 24.4846 96.8288 24.4989 96.8281 24.4836C96.8279 24.4772 96.827 24.4574 96.8268 24.4507C96.8251 24.4124 96.827 24.4556 96.8253 24.4171C96.8252 24.4136 96.8248 24.4036 96.8246 24.4C96.8245 24.3972 96.8244 24.3943 96.8243 24.3915C96.8241 24.3886 96.824 24.3857 96.8239 24.3828C96.8239 24.3826 96.8225 24.3484 96.8224 24.3479C96.8216 24.3279 96.8225 24.3503 96.8217 24.3302C96.8217 24.3294 96.821 24.3133 96.821 24.3124C96.8201 24.2917 96.8211 24.3152 96.8202 24.2944C96.8193 24.2738 96.8203 24.2968 96.8194 24.2762C96.8183 24.2482 96.8144 24.1563 96.8131 24.1248C96.812 24.0989 96.8134 24.1312 96.8123 24.1052C96.8121 24.1019 96.812 24.0986 96.8119 24.0953C96.8117 24.092 96.8116 24.0887 96.8114 24.0854C96.8106 24.0662 96.8114 24.0846 96.8106 24.0654C96.8095 24.0388 96.8109 24.0719 96.8098 24.0453C96.8096 24.0418 96.8065 23.9674 96.8063 23.9631C96.8055 23.9429 96.8063 23.9623 96.8054 23.9421C96.8043 23.9142 96.8057 23.949 96.8045 23.921C96.8045 23.9207 96.8028 23.8788 96.8028 23.8783C96.8016 23.8497 96.8031 23.8853 96.8019 23.8566C96.8017 23.853 96.8015 23.8494 96.8014 23.8458C96.8012 23.8422 96.8011 23.8385 96.8009 23.8349C96.8009 23.8329 96.7992 23.7931 96.7991 23.7908C96.7977 23.7569 96.793 23.6456 96.7914 23.6082C96.7899 23.5725 96.7919 23.6204 96.7904 23.5846C96.7903 23.5807 96.7901 23.5767 96.79 23.5728C96.7898 23.5688 96.7896 23.5649 96.7895 23.5609C96.7891 23.5516 96.7888 23.5463 96.7885 23.537C96.7869 23.5006 96.789 23.5494 96.7874 23.5129C96.7873 23.5089 96.7871 23.5049 96.7869 23.5009C96.7868 23.4968 96.7866 23.4928 96.7864 23.4887C96.786 23.4793 96.7858 23.4739 96.7854 23.4643C96.7838 23.4272 96.7859 23.477 96.7844 23.4398C96.7842 23.4357 96.784 23.4316 96.7839 23.4275C96.7837 23.4233 96.7835 23.4192 96.7833 23.4151C96.7829 23.4054 96.7827 23.3999 96.7823 23.3902C96.7807 23.3523 96.7828 23.4031 96.7813 23.3652C96.7812 23.364 96.7802 23.3412 96.7802 23.34C96.7798 23.3301 96.7795 23.3245 96.7791 23.3146C96.7775 23.276 96.7797 23.3278 96.7781 23.2891C96.778 23.2879 96.777 23.2647 96.777 23.2634C96.7769 23.261 96.7749 23.2142 96.7748 23.2116C96.7731 23.1716 96.7677 23.0411 96.7658 22.9976C96.7657 22.993 96.7655 22.9885 96.7653 22.9839C96.7651 22.9793 96.7649 22.9747 96.7647 22.9701C96.7646 22.9688 96.7636 22.9438 96.7635 22.9425C96.7633 22.937 96.7626 22.9202 96.7624 22.9147C96.7622 22.91 96.762 22.9054 96.7618 22.9007C96.7616 22.896 96.7614 22.8914 96.7612 22.8867C96.761 22.882 96.7608 22.8773 96.7606 22.8726C96.7604 22.868 96.7602 22.8633 96.76 22.8586C96.7598 22.853 96.7591 22.8359 96.7588 22.8303C96.7586 22.8255 96.7584 22.8208 96.7582 22.8161C96.758 22.8113 96.7578 22.8066 96.7576 22.8018C96.7574 22.797 96.7572 22.7923 96.757 22.7875C96.7568 22.7827 96.7566 22.778 96.7564 22.7732C96.7555 22.7512 96.7525 22.6799 96.7516 22.6571C96.7514 22.6522 96.7512 22.6473 96.751 22.6424C96.7507 22.6375 96.7505 22.6326 96.7503 22.6276C96.7501 22.6227 96.7499 22.6178 96.7497 22.6129C96.7495 22.6079 96.7493 22.603 96.7491 22.598C96.7488 22.5921 96.7481 22.5742 96.7478 22.5683C96.7476 22.5633 96.7474 22.5583 96.7472 22.5533C96.747 22.5483 96.7468 22.5433 96.7466 22.5383C96.7447 22.4925 96.7384 22.3424 96.7363 22.2931C96.7361 22.2878 96.7359 22.2826 96.7357 22.2774C96.7354 22.2722 96.7352 22.2669 96.735 22.2617C96.7348 22.2564 96.7346 22.2512 96.7343 22.2459C96.7341 22.2406 96.7339 22.2354 96.7337 22.2301C96.7335 22.2272 96.7311 22.1697 96.731 22.1665C96.7308 22.1612 96.7306 22.1558 96.7303 22.1505C96.7301 22.1452 96.7299 22.1398 96.7297 22.1345C96.7294 22.1281 96.7286 22.1087 96.7283 22.1022C96.7281 22.0969 96.7279 22.0915 96.7276 22.0861C96.7274 22.0807 96.7272 22.0753 96.727 22.0699C96.7267 22.0645 96.7265 22.0591 96.7263 22.0536C96.726 22.0482 96.7258 22.0428 96.7256 22.0373C96.7255 22.0343 96.723 21.975 96.7228 21.9718C96.7226 21.9663 96.7224 21.9608 96.7222 21.9553C96.7219 21.9498 96.7217 21.9443 96.7215 21.9388C96.7212 21.9322 96.7203 21.9122 96.7201 21.9056C96.7198 21.9 96.7196 21.8945 96.7194 21.8889C96.7191 21.8834 96.7189 21.8778 96.7187 21.8722C96.7184 21.8666 96.7182 21.8611 96.718 21.8555C96.7177 21.8499 96.7175 21.8443 96.7173 21.8387C96.7169 21.8298 96.7148 21.7803 96.7144 21.7712C96.7133 21.7441 96.7141 21.7643 96.713 21.7372C96.7128 21.7315 96.7125 21.7258 96.7123 21.7201C96.7121 21.7144 96.7118 21.7087 96.7116 21.703C96.7113 21.6973 96.7111 21.6916 96.7109 21.6859C96.7106 21.6801 96.7104 21.6744 96.7101 21.6687C96.709 21.6412 96.7098 21.6618 96.7087 21.6342C96.7083 21.625 96.7062 21.5741 96.7058 21.5647C96.7046 21.5368 96.7055 21.5577 96.7043 21.5297C96.7041 21.5239 96.7038 21.518 96.7036 21.5122C96.7033 21.5063 96.7031 21.5005 96.7028 21.4946C96.7026 21.4887 96.7024 21.4828 96.7021 21.477C96.7019 21.4711 96.7016 21.4652 96.7014 21.4593C96.7002 21.431 96.7011 21.4522 96.6999 21.4238C96.6995 21.4144 96.6973 21.362 96.6969 21.3524C96.6957 21.3237 96.6966 21.3451 96.6954 21.3164C96.6951 21.3104 96.6949 21.3044 96.6946 21.2984C96.6944 21.2924 96.6941 21.2863 96.6939 21.2803C96.6936 21.2743 96.6934 21.2682 96.6931 21.2622C96.6928 21.2561 96.6926 21.2501 96.6923 21.244C96.6911 21.2149 96.692 21.2367 96.6908 21.2076C96.6904 21.1978 96.6882 21.1441 96.6877 21.1342C96.6865 21.1047 96.6874 21.1267 96.6862 21.0972C96.6859 21.0911 96.6857 21.0849 96.6854 21.0787C96.6852 21.0725 96.6849 21.0663 96.6846 21.0601C96.6844 21.0539 96.6841 21.0477 96.6839 21.0415C96.6836 21.0353 96.6833 21.0291 96.6831 21.0229C96.6818 20.993 96.6828 21.0153 96.6815 20.9854C96.6811 20.9755 96.6788 20.9203 96.6783 20.9101C96.6771 20.8799 96.678 20.9025 96.6768 20.8722C96.6765 20.8658 96.6762 20.8595 96.676 20.8532C96.6757 20.8468 96.6754 20.8405 96.6752 20.8341C96.6749 20.8277 96.6746 20.8214 96.6744 20.815C96.6741 20.8086 96.6738 20.8022 96.6736 20.7958C96.6723 20.7652 96.6732 20.7881 96.6719 20.7574C96.6717 20.751 96.6714 20.7446 96.6711 20.7382C96.6709 20.7318 96.6706 20.7253 96.6703 20.7189C96.6701 20.7124 96.6698 20.706 96.6695 20.6995C96.6692 20.6931 96.669 20.6866 96.6687 20.6801C96.6674 20.6491 96.6684 20.6723 96.6671 20.6412C96.6668 20.6347 96.6665 20.6282 96.6663 20.6217C96.666 20.6152 96.6657 20.6087 96.6654 20.6022C96.6652 20.5957 96.6649 20.5891 96.6646 20.5826C96.6643 20.5761 96.6641 20.5695 96.6638 20.563C96.6623 20.5263 96.6637 20.5603 96.6621 20.5236C96.6619 20.517 96.6616 20.5104 96.6613 20.5038C96.661 20.4972 96.6608 20.4906 96.6605 20.484C96.6602 20.4774 96.6599 20.4708 96.6597 20.4642C96.6594 20.4576 96.6591 20.451 96.6588 20.4443C96.6579 20.4233 96.653 20.3058 96.6521 20.2838C96.6518 20.2771 96.6515 20.2704 96.6512 20.2636C96.651 20.2568 96.6507 20.2501 96.6504 20.2433C96.6501 20.2365 96.6498 20.2298 96.6495 20.223C96.6493 20.2162 96.649 20.2094 96.6487 20.2026C96.6471 20.1646 96.6486 20.1999 96.647 20.1618C96.6467 20.1549 96.6464 20.1481 96.6461 20.1413C96.6458 20.1344 96.6455 20.1276 96.6453 20.1208C96.645 20.1139 96.6447 20.107 96.6444 20.1002C96.6441 20.0933 96.6438 20.0865 96.6435 20.0796C96.6419 20.0411 96.6434 20.0768 96.6418 20.0382C96.6415 20.0313 96.6412 20.0244 96.6409 20.0175C96.6406 20.0106 96.6403 20.0037 96.6401 19.9967C96.6398 19.9898 96.6395 19.9829 96.6392 19.9759C96.6389 19.969 96.6386 19.962 96.6383 19.9551L95.6392 19.9969C95.6405 20.0289 95.6448 20.1315 95.6461 20.1626C95.6464 20.1695 95.6467 20.1763 95.647 20.1832C95.6473 20.19 95.6476 20.1968 95.6479 20.2037C95.6481 20.2105 95.6484 20.2173 95.6487 20.2241C95.649 20.2309 95.6493 20.2377 95.6496 20.2445C95.6507 20.2719 95.6501 20.2579 95.6513 20.2852C95.6516 20.292 95.6518 20.2987 95.6521 20.3055C95.6524 20.3122 95.6527 20.319 95.653 20.3257C95.6552 20.38 95.6541 20.3522 95.6563 20.4063C95.6566 20.413 95.6569 20.4197 95.6572 20.4263C95.6575 20.433 95.6577 20.4397 95.658 20.4463C95.6583 20.453 95.6586 20.4596 95.6589 20.4663C95.6591 20.4729 95.6594 20.4796 95.6597 20.4862C95.661 20.5179 95.6617 20.5339 95.663 20.5655C95.6635 20.5759 95.6642 20.5944 95.6647 20.6048C95.6658 20.6313 95.6652 20.6177 95.6663 20.6441C95.6666 20.6506 95.6669 20.6571 95.6671 20.6636C95.6674 20.6701 95.6677 20.6766 95.668 20.6831C95.6682 20.6896 95.6685 20.6961 95.6688 20.7026C95.669 20.7091 95.6693 20.7156 95.6696 20.722C95.6707 20.7481 95.6701 20.7347 95.6712 20.7608C95.6734 20.8121 95.6707 20.748 95.6728 20.7993C95.675 20.8511 95.6739 20.8245 95.676 20.876C95.6763 20.8823 95.6766 20.8887 95.6768 20.895C95.6771 20.9014 95.6774 20.9077 95.6776 20.9141C95.6779 20.9204 95.6782 20.9267 95.6784 20.933C95.6787 20.9394 95.679 20.9457 95.6792 20.952C95.6801 20.9721 95.6815 21.0074 95.6824 21.0273C95.6845 21.0778 95.6834 21.0518 95.6855 21.102C95.6876 21.1515 95.685 21.0897 95.6871 21.1391C95.6873 21.1453 95.6876 21.1514 95.6878 21.1576C95.6881 21.1638 95.6884 21.1699 95.6886 21.1761C95.6897 21.2008 95.6891 21.1881 95.6902 21.2128C95.6922 21.2616 95.6896 21.2007 95.6917 21.2494C95.6938 21.2986 95.6927 21.2732 95.6947 21.3222C95.695 21.3282 95.6952 21.3342 95.6955 21.3403C95.6957 21.3463 95.696 21.3523 95.6963 21.3583C95.6965 21.3643 95.6968 21.3703 95.697 21.3763C95.6973 21.3823 95.6975 21.3883 95.6978 21.3943C95.6986 21.4133 95.7 21.4469 95.7008 21.4657C95.7028 21.5136 95.7017 21.4888 95.7037 21.5365C95.704 21.5423 95.7042 21.5482 95.7045 21.5541C95.7047 21.5599 95.7049 21.5658 95.7052 21.5716C95.7054 21.5775 95.7057 21.5833 95.7059 21.5891C95.7062 21.595 95.7064 21.6008 95.7067 21.6066C95.7069 21.6124 95.7071 21.6182 95.7074 21.624C95.7076 21.6298 95.7079 21.6356 95.7081 21.6414C95.7084 21.6472 95.7086 21.653 95.7088 21.6588C95.7091 21.6645 95.7093 21.6703 95.7096 21.6761C95.7115 21.7226 95.7105 21.6986 95.7125 21.7449C95.7144 21.7904 95.712 21.7336 95.7139 21.7791C95.7141 21.7847 95.7144 21.7904 95.7146 21.7961C95.7148 21.8018 95.7151 21.8074 95.7153 21.8131C95.7163 21.8359 95.7158 21.8241 95.7167 21.8469C95.7186 21.8917 95.7163 21.8358 95.7181 21.8806C95.7182 21.8829 95.7195 21.9118 95.7195 21.9141C95.7198 21.9197 95.72 21.9252 95.7202 21.9308C95.7205 21.9364 95.7207 21.9419 95.7209 21.9474C95.7231 21.9979 95.7244 22.0297 95.7265 22.0792C95.7269 22.0885 95.7274 22.1025 95.7278 22.1118C95.7281 22.1172 95.7283 22.1226 95.7285 22.128C95.7287 22.1334 95.729 22.1387 95.7292 22.1441C95.7297 22.1564 95.7314 22.1964 95.7319 22.2084C95.7329 22.2329 95.7362 22.3113 95.7372 22.3349C95.7392 22.3824 95.7404 22.4123 95.7424 22.4589C95.7429 22.4708 95.747 22.5691 95.7475 22.5802C95.7478 22.5888 95.7496 22.6315 95.75 22.6399C95.7505 22.6515 95.752 22.6876 95.7524 22.6989C95.7543 22.7434 95.7555 22.7715 95.7573 22.8151C95.7578 22.8263 95.7616 22.9182 95.7621 22.9286C95.763 22.9501 95.7659 23.0189 95.7667 23.0395C95.7702 23.1222 95.7724 23.1742 95.7757 23.2534C95.7759 23.2578 95.7761 23.2621 95.7762 23.2665C95.7764 23.2708 95.7766 23.2751 95.7768 23.2795C95.777 23.2838 95.7771 23.2881 95.7773 23.2924C95.7775 23.2967 95.7777 23.301 95.7779 23.3053C95.778 23.3078 95.7788 23.3286 95.7789 23.331C95.7791 23.3353 95.7793 23.3395 95.7795 23.3438C95.7797 23.348 95.7798 23.3523 95.78 23.3565C95.7808 23.376 95.7834 23.4383 95.7842 23.457C95.7858 23.4949 95.7909 23.6156 95.7923 23.6501C95.7953 23.7208 95.7972 23.7655 95.8 23.8327C95.8021 23.8837 95.8015 23.87 95.8036 23.9201C95.8043 23.9367 95.8065 23.9892 95.8072 24.0049C95.8085 24.0369 95.8128 24.1383 95.814 24.1667C95.8164 24.2256 95.818 24.2626 95.8203 24.3181C95.8212 24.34 95.8254 24.4406 95.8262 24.459C95.8273 24.4849 95.8307 24.5669 95.8317 24.5894C95.8356 24.6824 95.838 24.74 95.8413 24.8191C95.8438 24.879 95.8431 24.8618 95.8455 24.9182C95.8463 24.9374 95.8485 24.9912 95.8492 25.0069C95.8512 25.0549 95.8539 25.119 95.8553 25.1531C95.8566 25.1827 95.859 25.2417 95.8597 25.2574C95.8604 25.2741 95.8622 25.3173 95.8623 25.3201C95.8624 25.3213 95.8625 25.3239 95.8625 25.325C95.8625 25.3253 95.8626 25.3268 95.8626 25.3272C95.8627 25.3284 95.8626 25.328 95.8627 25.3292C95.8628 25.3328 95.8629 25.333 95.863 25.3357C95.863 25.337 95.8631 25.3392 95.8631 25.3396C95.8631 25.3399 95.8632 25.3405 95.8632 25.3406C95.8632 25.3407 95.8632 25.3408 95.8632 25.3409C95.8632 25.3409 95.8632 25.3409 95.8632 25.3409C95.8632 25.3409 95.8632 25.3409 96.3628 25.32ZM96.6388 19.976C96.6388 19.6406 96.7385 19.3929 96.9211 19.1962L96.1884 18.5158C95.8163 18.9164 95.6388 19.4154 95.6388 19.976H96.6388ZM96.9083 19.2096C97.1176 19.0003 97.3441 18.908 97.6108 18.908V17.908C97.0667 17.908 96.5892 18.1144 96.2012 18.5024L96.9083 19.2096ZM97.6108 18.908C97.8752 18.908 98.0654 18.9974 98.2231 19.1814L98.9824 18.5306C98.6281 18.1173 98.157 17.908 97.6108 17.908V18.908ZM98.2353 19.1951C98.3948 19.3679 98.4868 19.5934 98.4868 19.912H99.4868C99.4868 19.3773 99.3227 18.8988 98.9702 18.5169L98.2353 19.1951ZM98.4868 19.912C98.4868 20.3349 98.476 20.6346 98.4572 20.8222L99.4523 20.9218C99.4762 20.6827 99.4868 20.3424 99.4868 19.912H98.4868ZM99.3591 21.1661C100.491 19.6095 101.732 18.908 103.083 18.908V17.908C101.319 17.908 99.8077 18.8491 98.5504 20.5779L99.3591 21.1661ZM103.083 18.908C104.078 18.908 104.864 19.2363 105.482 19.8818C106.114 20.5419 106.604 21.5703 106.914 23.0241L107.892 22.8159C107.561 21.2617 107.012 20.0341 106.204 19.1902C105.382 18.3317 104.328 17.908 103.083 17.908V18.908ZM106.915 23.0279L108.131 28.5319L109.107 28.3161L107.891 22.8121L106.915 23.0279ZM108.135 28.5502C108.281 29.1103 108.566 29.6948 108.971 30.3014L109.803 29.7466C109.439 29.2012 109.212 28.719 109.103 28.2978L108.135 28.5502ZM108.983 30.319C109.357 30.831 109.495 31.2291 109.495 31.528H110.495C110.495 30.9309 110.227 30.3264 109.79 29.729L108.983 30.319ZM109.495 31.528C109.495 32.0104 109.379 32.2795 109.234 32.4294C109.094 32.5757 108.846 32.692 108.395 32.692V33.692C109.01 33.692 109.562 33.5309 109.955 33.1226C110.344 32.7178 110.495 32.1549 110.495 31.528H109.495ZM108.395 32.692C108.015 32.692 107.715 32.5513 107.461 32.2423C107.19 31.9126 106.958 31.3736 106.806 30.5707L105.824 30.7573C105.991 31.6397 106.267 32.3647 106.689 32.8777C107.128 33.4114 107.708 33.692 108.395 33.692V32.692ZM106.807 30.5746L105.591 23.8866L104.607 24.0654L105.823 30.7534L106.807 30.5746ZM105.59 23.8827C105.376 22.7557 104.967 21.8465 104.319 21.2173C103.661 20.578 102.805 20.276 101.803 20.276V21.276C102.592 21.276 103.182 21.5073 103.622 21.9347C104.073 22.3721 104.416 23.063 104.608 24.0693L105.59 23.8827ZM101.803 20.276C100.76 20.276 99.8947 20.6346 99.2736 21.3852L100.044 22.0228C100.447 21.536 101.011 21.276 101.803 21.276V20.276ZM99.2736 21.3852C98.6951 22.0842 98.3683 22.8968 98.2963 23.8086L99.2932 23.8874C99.3492 23.1779 99.5984 22.5611 100.044 22.0228L99.2736 21.3852Z" fill="#0F0A31"/>
</g>
<defs>
<filter id="filter0_d_16_3" x="0.35603" y="0.3" width="118.339" height="50.712" filterUnits="userSpaceOnUse" color-interpolation-filters="sRGB">
<feFlood flood-opacity="0" result="BackgroundImageFix"/>
<feColorMatrix in="SourceAlpha" type="matrix" values="0 0 0 0 0 0 0 0 0 0 0 0 0 0 0 0 0 0 127 0" result="hardAlpha"/>
<feOffset/>
<feGaussianBlur stdDeviation="4.35"/>
<feComposite in2="hardAlpha" operator="out"/>
<feColorMatrix type="matrix" values="0 0 0 0 0.482353 0 0 0 0 0.552941 0 0 0 0 1 0 0 0 0.25 0"/>
<feBlend mode="normal" in2="BackgroundImageFix" result="effect1_dropShadow_16_3"/>
<feBlend mode="normal" in="SourceGraphic" in2="effect1_dropShadow_16_3" result="shape"/>
</filter>
</defs>
</svg>
