<svg width="881" height="330" viewBox="0 0 881 330" fill="none" xmlns="http://www.w3.org/2000/svg">
<path d="M25 25H746C806.751 25 856 74.2487 856 135V305H135C74.2487 305 25 255.751 25 195V25Z" stroke="#F97316" stroke-width="50"/>
<path d="M461 50H746C792.944 50 831 88.0558 831 135V280H461V50Z" fill="#F97316"/>
<path fill-rule="evenodd" clip-rule="evenodd" d="M831.707 280.707C831.526 280.888 831.276 281 831 281H828.016V279H830V276.979H832V280C832 280.276 831.888 280.526 831.707 280.707ZM832 270.937H830V264.896H832V270.937ZM832 258.854H830V252.812H832V258.854ZM832 246.771H830V240.729H832V246.771ZM832 234.687H830V228.646H832V234.687ZM832 222.604H830V216.562H832V222.604ZM832 210.521H830V204.479H832V210.521ZM832 198.438H830V192.396H832V198.438ZM832 186.354H830V180.312H832V186.354ZM832 174.271H830V168.229H832V174.271ZM832 162.188H830V156.146H832V162.188ZM832 150.104H830V144.062H832V150.104ZM832 138.021H830V135C830 133.994 829.982 132.993 829.947 131.996L831.946 131.925C831.982 132.946 832 133.971 832 135V138.021ZM822.048 279H816.081V281H822.048V279ZM810.113 281V279H804.145V281H810.113ZM798.177 281V279H792.21V281H798.177ZM786.242 281V279H780.274V281H786.242ZM774.306 281V279H768.339V281H774.306ZM762.371 281V279H756.403V281H762.371ZM750.435 281V279H744.468V281H750.435ZM738.5 281V279H732.532V281H738.5ZM726.565 281V279H720.597V281H726.565ZM714.629 281V279H708.661V281H714.629ZM702.694 281V279H696.726V281H702.694ZM690.758 281V279H684.79V281H690.758ZM678.823 281V279H672.855V281H678.823ZM666.887 281V279H660.919V281H666.887ZM654.952 281V279H648.984V281H654.952ZM643.016 281V279H637.048V281H643.016ZM631.081 281V279H625.113V281H631.081ZM619.145 281V279H613.177V281H619.145ZM607.21 281V279H601.242V281H607.21ZM595.274 281V279H589.306V281H595.274ZM583.339 281V279H577.371V281H583.339ZM571.403 281V279H565.435V281H571.403ZM559.468 281V279H553.5V281H559.468ZM547.532 281V279H541.564V281H547.532ZM535.597 281V279H529.629V281H535.597ZM523.661 281V279H517.694V281H523.661ZM511.726 281V279H505.758V281H511.726ZM499.79 281V279H493.823V281H499.79ZM487.855 281V279H481.887V281H487.855ZM475.919 281V279H469.952V281H475.919ZM463.984 281V279H461V280V281H463.984ZM749.004 51.0527C748.007 51.0177 747.006 51 746 51H743.031V49H746C747.029 49 748.054 49.0181 749.075 49.0539L749.004 51.0527ZM737.094 49H731.156V51H737.094V49ZM725.219 51V49H719.281V51H725.219ZM713.344 51V49H707.406V51H713.344ZM701.469 51V49H695.531V51H701.469ZM689.594 51V49H683.656V51H689.594ZM677.719 51V49H671.781V51H677.719ZM665.844 51V49H659.906V51H665.844ZM653.969 51V49H648.031V51H653.969ZM642.094 51V49H636.156V51H642.094ZM630.219 51V49H624.281V51H630.219ZM618.344 51V49H612.406V51H618.344ZM606.469 51V49H600.531V51H606.469ZM594.594 51V49H588.656V51H594.594ZM582.719 51V49H576.781V51H582.719ZM570.844 51V49H564.906V51H570.844ZM558.969 51V49H553.031V51H558.969ZM547.094 51V49H541.156V51H547.094ZM535.219 51V49H529.281V51H535.219ZM523.344 51V49H517.406V51H523.344ZM511.469 51V49H505.531V51H511.469ZM499.594 51V49H493.656V51H499.594ZM487.719 51V49H481.781V51H487.719ZM475.844 51V49H469.906V51H475.844ZM463.969 51V49H461V50V51H463.969ZM760.923 52.3215C758.966 51.9706 756.986 51.6875 754.984 51.4747L755.195 49.4859C757.245 49.7037 759.272 49.9936 761.276 50.3529L760.923 52.3215ZM772.537 55.2776C770.647 54.6489 768.728 54.0855 766.781 53.59L767.274 51.6518C769.268 52.1591 771.233 52.7361 773.168 53.3799L772.537 55.2776ZM783.608 59.8682C781.825 58.9741 780.006 58.1417 778.154 57.3736L778.92 55.5261C780.817 56.3126 782.679 57.165 784.504 58.0804L783.608 59.8682ZM793.91 65.9934C792.271 64.8533 790.589 63.77 788.868 62.7465L789.89 61.0275C791.652 62.0753 793.374 63.1843 795.052 64.3516L793.91 65.9934ZM803.239 73.5202C801.776 72.158 800.265 70.8472 798.708 69.591L799.964 68.0345C801.558 69.3205 803.105 70.6622 804.602 72.0568L803.239 73.5202ZM811.409 82.2918C810.153 80.7348 808.842 79.2236 807.48 77.761L808.943 76.3979C810.338 77.8951 811.68 79.4421 812.966 81.0359L811.409 82.2918ZM818.253 92.1321C817.23 90.4108 816.147 88.7292 815.007 87.0901L816.648 85.948C817.816 87.626 818.925 89.3477 819.973 91.11L818.253 92.1321ZM823.626 102.846C822.858 100.994 822.026 99.1751 821.132 97.3925L822.92 96.4958C823.835 98.321 824.687 100.183 825.474 102.08L823.626 102.846ZM827.41 114.219C826.915 112.272 826.351 110.353 825.722 108.463L827.62 107.832C828.264 109.767 828.841 111.732 829.348 113.726L827.41 114.219ZM829.525 126.016C829.312 124.014 829.029 122.034 828.679 120.077L830.647 119.724C831.006 121.728 831.296 123.755 831.514 125.805L829.525 126.016Z" fill="black"/>
<mask id="path-4-inside-1_121_2" fill="white">
<path d="M50 50H461V280H135C88.0558 280 50 241.944 50 195V50Z"/>
</mask>
<path d="M50 50H461V280H135C88.0558 280 50 241.944 50 195V50Z" fill="#0F1019"/>
<path d="M49 49H461V51H51L49 49ZM461 281H135C87.5035 281 49 242.496 49 195H51C51 241.392 88.6081 279 135 279H461V281ZM135 281C87.5035 281 49 242.496 49 195V49L51 51V195C51 241.392 88.6081 279 135 279V281ZM461 50V280V50Z" fill="#0085FF" mask="url(#path-4-inside-1_121_2)"/>
<mask id="path-6-outside-2_121_2" maskUnits="userSpaceOnUse" x="439" y="163" width="43" height="16" fill="black">
<rect fill="white" x="439" y="163" width="43" height="16"/>
<path d="M440.782 177.46V164.622H480.864V177.46H440.782Z"/>
</mask>
<path d="M440.782 177.46V164.622H480.864V177.46H440.782Z" fill="white"/>
<path d="M440.782 177.46H439.782V178.46H440.782V177.46ZM440.782 164.622V163.622H439.782V164.622H440.782ZM480.864 164.622H481.864V163.622H480.864V164.622ZM480.864 177.46V178.46H481.864V177.46H480.864ZM441.782 177.46V164.622H439.782V177.46H441.782ZM440.782 165.622H480.864V163.622H440.782V165.622ZM479.864 164.622V177.46H481.864V164.622H479.864ZM480.864 176.46H440.782V178.46H480.864V176.46Z" fill="#0085FF" mask="url(#path-6-outside-2_121_2)"/>
<mask id="path-8-outside-3_121_2" maskUnits="userSpaceOnUse" x="193" y="139" width="230" height="62" fill="black">
<rect fill="white" x="193" y="139" width="230" height="62"/>
<path d="M216.651 200L194.905 140.24H206.525L220.967 179.665L235.409 140.24H246.116L260.558 179.665L274.917 140.24H286.62L264.874 200H256.242L240.721 157.67L225.283 200H216.651ZM296.307 200V140.24H351.336V151.279H307.346V164.559H342.704V175.681H307.346V188.961H351.336V200H296.307ZM361.597 200V140.24H407.413C409.516 140.24 411.425 140.766 413.14 141.817C414.911 142.868 416.322 144.279 417.373 146.05C418.424 147.765 418.95 149.674 418.95 151.777V163.48C418.95 164.199 418.895 164.891 418.784 165.555C418.673 166.219 418.48 166.855 418.203 167.464C419.144 168.737 419.891 170.065 420.444 171.448C421.053 172.831 421.357 174.215 421.357 175.598V188.463C421.357 190.566 420.831 192.502 419.78 194.273C418.729 195.988 417.318 197.372 415.547 198.423C413.776 199.474 411.84 200 409.737 200H361.597ZM373.549 188.961H409.239C409.516 188.961 409.765 188.878 409.986 188.712C410.207 188.491 410.318 188.242 410.318 187.965V176.096C410.318 175.819 410.207 175.598 409.986 175.432C409.765 175.211 409.516 175.1 409.239 175.1H373.549C373.272 175.1 373.023 175.211 372.802 175.432C372.636 175.598 372.553 175.819 372.553 176.096V187.965C372.553 188.242 372.636 188.491 372.802 188.712C373.023 188.878 373.272 188.961 373.549 188.961ZM373.549 164.061H406.915C407.192 164.061 407.413 163.978 407.579 163.812C407.745 163.591 407.828 163.342 407.828 163.065V152.275C407.828 151.998 407.745 151.777 407.579 151.611C407.413 151.39 407.192 151.279 406.915 151.279H373.549C373.272 151.279 373.023 151.39 372.802 151.611C372.636 151.777 372.553 151.998 372.553 152.275V163.065C372.553 163.342 372.636 163.591 372.802 163.812C373.023 163.978 373.272 164.061 373.549 164.061Z"/>
</mask>
<path d="M216.651 200L194.905 140.24H206.525L220.967 179.665L235.409 140.24H246.116L260.558 179.665L274.917 140.24H286.62L264.874 200H256.242L240.721 157.67L225.283 200H216.651ZM296.307 200V140.24H351.336V151.279H307.346V164.559H342.704V175.681H307.346V188.961H351.336V200H296.307ZM361.597 200V140.24H407.413C409.516 140.24 411.425 140.766 413.14 141.817C414.911 142.868 416.322 144.279 417.373 146.05C418.424 147.765 418.95 149.674 418.95 151.777V163.48C418.95 164.199 418.895 164.891 418.784 165.555C418.673 166.219 418.48 166.855 418.203 167.464C419.144 168.737 419.891 170.065 420.444 171.448C421.053 172.831 421.357 174.215 421.357 175.598V188.463C421.357 190.566 420.831 192.502 419.78 194.273C418.729 195.988 417.318 197.372 415.547 198.423C413.776 199.474 411.84 200 409.737 200H361.597ZM373.549 188.961H409.239C409.516 188.961 409.765 188.878 409.986 188.712C410.207 188.491 410.318 188.242 410.318 187.965V176.096C410.318 175.819 410.207 175.598 409.986 175.432C409.765 175.211 409.516 175.1 409.239 175.1H373.549C373.272 175.1 373.023 175.211 372.802 175.432C372.636 175.598 372.553 175.819 372.553 176.096V187.965C372.553 188.242 372.636 188.491 372.802 188.712C373.023 188.878 373.272 188.961 373.549 188.961ZM373.549 164.061H406.915C407.192 164.061 407.413 163.978 407.579 163.812C407.745 163.591 407.828 163.342 407.828 163.065V152.275C407.828 151.998 407.745 151.777 407.579 151.611C407.413 151.39 407.192 151.279 406.915 151.279H373.549C373.272 151.279 373.023 151.39 372.802 151.611C372.636 151.777 372.553 151.998 372.553 152.275V163.065C372.553 163.342 372.636 163.591 372.802 163.812C373.023 163.978 373.272 164.061 373.549 164.061Z" fill="#F97316"/>
<path d="M216.651 200L215.711 200.342L215.951 201H216.651V200ZM194.905 140.24V139.24H193.477L193.965 140.582L194.905 140.24ZM206.525 140.24L207.464 139.896L207.224 139.24H206.525V140.24ZM220.967 179.665L220.028 180.009L220.967 182.572L221.906 180.009L220.967 179.665ZM235.409 140.24V139.24H234.71L234.47 139.896L235.409 140.24ZM246.116 140.24L247.055 139.896L246.815 139.24H246.116V140.24ZM260.558 179.665L259.619 180.009L260.561 182.58L261.498 180.007L260.558 179.665ZM274.917 140.24V139.24H274.217L273.977 139.898L274.917 140.24ZM286.62 140.24L287.56 140.582L288.048 139.24H286.62V140.24ZM264.874 200V201H265.574L265.814 200.342L264.874 200ZM256.242 200L255.303 200.344L255.544 201H256.242V200ZM240.721 157.67L241.66 157.326L240.718 154.758L239.782 157.327L240.721 157.67ZM225.283 200V201H225.983L226.222 200.343L225.283 200ZM217.591 199.658L195.845 139.898L193.965 140.582L215.711 200.342L217.591 199.658ZM194.905 141.24H206.525V139.24H194.905V141.24ZM205.586 140.584L220.028 180.009L221.906 179.321L207.464 139.896L205.586 140.584ZM221.906 180.009L236.348 140.584L234.47 139.896L220.028 179.321L221.906 180.009ZM235.409 141.24H246.116V139.24H235.409V141.24ZM245.177 140.584L259.619 180.009L261.497 179.321L247.055 139.896L245.177 140.584ZM261.498 180.007L275.857 140.582L273.977 139.898L259.618 179.323L261.498 180.007ZM274.917 141.24H286.62V139.24H274.917V141.24ZM285.68 139.898L263.934 199.658L265.814 200.342L287.56 140.582L285.68 139.898ZM264.874 199H256.242V201H264.874V199ZM257.181 199.656L241.66 157.326L239.782 158.014L255.303 200.344L257.181 199.656ZM239.782 157.327L224.344 199.657L226.222 200.343L241.66 158.013L239.782 157.327ZM225.283 199H216.651V201H225.283V199ZM296.307 200H295.307V201H296.307V200ZM296.307 140.24V139.24H295.307V140.24H296.307ZM351.336 140.24H352.336V139.24H351.336V140.24ZM351.336 151.279V152.279H352.336V151.279H351.336ZM307.346 151.279V150.279H306.346V151.279H307.346ZM307.346 164.559H306.346V165.559H307.346V164.559ZM342.704 164.559H343.704V163.559H342.704V164.559ZM342.704 175.681V176.681H343.704V175.681H342.704ZM307.346 175.681V174.681H306.346V175.681H307.346ZM307.346 188.961H306.346V189.961H307.346V188.961ZM351.336 188.961H352.336V187.961H351.336V188.961ZM351.336 200V201H352.336V200H351.336ZM297.307 200V140.24H295.307V200H297.307ZM296.307 141.24H351.336V139.24H296.307V141.24ZM350.336 140.24V151.279H352.336V140.24H350.336ZM351.336 150.279H307.346V152.279H351.336V150.279ZM306.346 151.279V164.559H308.346V151.279H306.346ZM307.346 165.559H342.704V163.559H307.346V165.559ZM341.704 164.559V175.681H343.704V164.559H341.704ZM342.704 174.681H307.346V176.681H342.704V174.681ZM306.346 175.681V188.961H308.346V175.681H306.346ZM307.346 189.961H351.336V187.961H307.346V189.961ZM350.336 188.961V200H352.336V188.961H350.336ZM351.336 199H296.307V201H351.336V199ZM361.597 200H360.597V201H361.597V200ZM361.597 140.24V139.24H360.597V140.24H361.597ZM413.14 141.817L412.617 142.67L412.629 142.677L413.14 141.817ZM417.373 146.05L416.513 146.561L416.52 146.573L417.373 146.05ZM418.784 165.555L417.797 165.391L417.797 165.391L418.784 165.555ZM418.203 167.464L417.293 167.05L417.049 167.586L417.399 168.058L418.203 167.464ZM420.444 171.448L419.515 171.819L419.522 171.835L419.529 171.851L420.444 171.448ZM419.78 194.273L420.633 194.796L420.64 194.784L419.78 194.273ZM415.547 198.423L415.036 197.563L415.547 198.423ZM409.986 188.712L410.586 189.512L410.643 189.469L410.693 189.419L409.986 188.712ZM409.986 175.432L409.279 176.139L409.329 176.189L409.386 176.232L409.986 175.432ZM372.802 175.432L373.509 176.139L372.802 175.432ZM372.802 188.712L372.002 189.312L372.088 189.426L372.202 189.512L372.802 188.712ZM407.579 163.812L408.286 164.519L408.336 164.469L408.379 164.412L407.579 163.812ZM407.579 151.611L406.779 152.211L406.822 152.268L406.872 152.318L407.579 151.611ZM372.802 151.611L373.509 152.318L373.509 152.318L372.802 151.611ZM372.802 163.812L372.002 164.412L372.088 164.526L372.202 164.612L372.802 163.812ZM362.597 200V140.24H360.597V200H362.597ZM361.597 141.24H407.413V139.24H361.597V141.24ZM407.413 141.24C409.34 141.24 411.067 141.719 412.617 142.67L413.662 140.964C411.783 139.812 409.691 139.24 407.413 139.24V141.24ZM412.629 142.677C414.256 143.643 415.547 144.934 416.513 146.561L418.233 145.539C417.096 143.625 415.565 142.094 413.65 140.957L412.629 142.677ZM416.52 146.573C417.471 148.123 417.95 149.85 417.95 151.777H419.95C419.95 149.499 419.378 147.407 418.225 145.527L416.52 146.573ZM417.95 151.777V163.48H419.95V151.777H417.95ZM417.95 163.48C417.95 164.148 417.899 164.784 417.797 165.391L419.77 165.719C419.891 164.998 419.95 164.251 419.95 163.48H417.95ZM417.797 165.391C417.701 165.969 417.533 166.522 417.293 167.05L419.113 167.878C419.426 167.189 419.645 166.469 419.77 165.719L417.797 165.391ZM417.399 168.058C418.292 169.267 418.996 170.52 419.515 171.819L421.372 171.077C420.785 169.609 419.995 168.207 419.007 166.87L417.399 168.058ZM419.529 171.851C420.087 173.119 420.357 174.366 420.357 175.598H422.357C422.357 174.064 422.019 172.544 421.359 171.045L419.529 171.851ZM420.357 175.598V188.463H422.357V175.598H420.357ZM420.357 188.463C420.357 190.39 419.878 192.15 418.92 193.762L420.64 194.784C421.785 192.855 422.357 190.741 422.357 188.463H420.357ZM418.927 193.75C417.963 195.324 416.671 196.593 415.036 197.563L416.057 199.283C417.964 198.151 419.494 196.653 420.632 194.796L418.927 193.75ZM415.036 197.563C413.424 198.521 411.664 199 409.737 199V201C412.015 201 414.129 200.428 416.057 199.283L415.036 197.563ZM409.737 199H361.597V201H409.737V199ZM373.549 189.961H409.239V187.961H373.549V189.961ZM409.239 189.961C409.732 189.961 410.191 189.808 410.586 189.512L409.386 187.912C409.338 187.948 409.299 187.961 409.239 187.961V189.961ZM410.693 189.419C411.075 189.037 411.318 188.543 411.318 187.965H409.318C409.318 187.967 409.318 187.965 409.319 187.961C409.319 187.957 409.321 187.954 409.321 187.953C409.322 187.95 409.315 187.968 409.279 188.005L410.693 189.419ZM411.318 187.965V176.096H409.318V187.965H411.318ZM411.318 176.096C411.318 175.505 411.059 174.987 410.586 174.632L409.386 176.232C409.387 176.233 409.362 176.214 409.34 176.17C409.319 176.126 409.318 176.094 409.318 176.096H411.318ZM410.693 174.725C410.311 174.343 409.816 174.1 409.239 174.1V176.1C409.241 176.1 409.239 176.1 409.235 176.099C409.231 176.098 409.228 176.097 409.227 176.097C409.224 176.095 409.242 176.102 409.279 176.139L410.693 174.725ZM409.239 174.1H373.549V176.1H409.239V174.1ZM373.549 174.1C372.971 174.1 372.477 174.343 372.095 174.725L373.509 176.139C373.546 176.102 373.564 176.095 373.561 176.097C373.56 176.097 373.557 176.098 373.553 176.099C373.549 176.1 373.547 176.1 373.549 176.1V174.1ZM372.095 174.725C371.708 175.112 371.553 175.605 371.553 176.096H373.553C373.553 176.058 373.559 176.055 373.551 176.074C373.548 176.083 373.542 176.095 373.534 176.108C373.526 176.12 373.517 176.131 373.509 176.139L372.095 174.725ZM371.553 176.096V187.965H373.553V176.096H371.553ZM371.553 187.965C371.553 188.458 371.706 188.918 372.002 189.312L373.602 188.112C373.566 188.064 373.553 188.025 373.553 187.965H371.553ZM372.202 189.512C372.596 189.808 373.056 189.961 373.549 189.961V187.961C373.489 187.961 373.45 187.948 373.402 187.912L372.202 189.512ZM373.549 165.061H406.915V163.061H373.549V165.061ZM406.915 165.061C407.406 165.061 407.899 164.906 408.286 164.519L406.872 163.105C406.88 163.097 406.89 163.088 406.903 163.08C406.916 163.072 406.928 163.066 406.937 163.062C406.956 163.055 406.953 163.061 406.915 163.061V165.061ZM408.379 164.412C408.675 164.018 408.828 163.558 408.828 163.065H406.828C406.828 163.125 406.815 163.164 406.779 163.212L408.379 164.412ZM408.828 163.065V152.275H406.828V163.065H408.828ZM408.828 152.275C408.828 151.784 408.673 151.291 408.286 150.904L406.872 152.318C406.864 152.31 406.855 152.299 406.847 152.287C406.838 152.274 406.833 152.262 406.829 152.253C406.822 152.234 406.828 152.237 406.828 152.275H408.828ZM408.379 151.011C408.024 150.538 407.506 150.279 406.915 150.279V152.279C406.917 152.279 406.885 152.278 406.841 152.256C406.797 152.234 406.778 152.21 406.779 152.211L408.379 151.011ZM406.915 150.279H373.549V152.279H406.915V150.279ZM373.549 150.279C372.971 150.279 372.477 150.522 372.095 150.904L373.509 152.318C373.546 152.281 373.564 152.274 373.561 152.276C373.56 152.276 373.557 152.277 373.553 152.278C373.549 152.279 373.547 152.279 373.549 152.279V150.279ZM372.095 150.904C371.708 151.291 371.553 151.784 371.553 152.275H373.553C373.553 152.237 373.559 152.234 373.551 152.253C373.548 152.262 373.542 152.274 373.534 152.287C373.526 152.299 373.517 152.31 373.509 152.318L372.095 150.904ZM371.553 152.275V163.065H373.553V152.275H371.553ZM371.553 163.065C371.553 163.558 371.706 164.018 372.002 164.412L373.602 163.212C373.566 163.164 373.553 163.125 373.553 163.065H371.553ZM372.202 164.612C372.596 164.908 373.056 165.061 373.549 165.061V163.061C373.489 163.061 373.45 163.048 373.402 163.012L372.202 164.612Z" fill="#FFC700" mask="url(#path-8-outside-3_121_2)"/>
<mask id="path-10-outside-4_121_2" maskUnits="userSpaceOnUse" x="499" y="138" width="309" height="86" fill="black">
<rect fill="white" x="499" y="138" width="309" height="86"/>
<path d="M512.791 202C510.587 202 508.557 201.449 506.701 200.347C504.903 199.245 503.453 197.795 502.351 195.997C501.249 194.141 500.698 192.111 500.698 189.907V139.36H512.182V189.385C512.182 189.675 512.269 189.936 512.443 190.168C512.675 190.342 512.936 190.429 513.226 190.429H550.636C550.926 190.429 551.187 190.342 551.419 190.168C551.651 189.936 551.767 189.675 551.767 189.385V139.36H563.338V189.907C563.338 192.111 562.787 194.141 561.685 195.997C560.583 197.795 559.104 199.245 557.248 200.347C555.45 201.449 553.449 202 551.245 202H512.791ZM574.485 222.01V151.54H613.722C615.926 151.54 617.927 152.091 619.725 153.193C621.581 154.295 623.031 155.745 624.075 157.543C625.177 159.341 625.728 161.342 625.728 163.546V189.994C625.728 192.198 625.177 194.199 624.075 195.997C623.031 197.795 621.581 199.245 619.725 200.347C617.927 201.449 615.926 202 613.722 202H585.882V222.01H574.485ZM586.926 190.603H613.287C613.577 190.603 613.809 190.516 613.983 190.342C614.215 190.11 614.331 189.849 614.331 189.559V163.981C614.331 163.691 614.215 163.459 613.983 163.285C613.809 163.053 613.577 162.937 613.287 162.937H586.926C586.636 162.937 586.375 163.053 586.143 163.285C585.969 163.459 585.882 163.691 585.882 163.981V189.559C585.882 189.849 585.969 190.11 586.143 190.342C586.375 190.516 586.636 190.603 586.926 190.603ZM645.83 202C643.626 202 641.596 201.449 639.74 200.347C637.942 199.245 636.492 197.795 635.39 195.997C634.346 194.199 633.824 192.198 633.824 189.994V171.028H673.67V163.981C673.67 163.691 673.554 163.459 673.322 163.285C673.148 163.053 672.916 162.937 672.626 162.937H633.824V151.54H673.061C675.265 151.54 677.266 152.091 679.064 153.193C680.92 154.295 682.37 155.745 683.414 157.543C684.516 159.341 685.067 161.342 685.067 163.546V202H645.83ZM646.265 190.603H673.67V181.294H645.221V189.559C645.221 189.849 645.308 190.11 645.482 190.342C645.714 190.516 645.975 190.603 646.265 190.603ZM703.541 220.705V209.221H733.904C734.194 209.221 734.426 209.105 734.6 208.873C734.832 208.699 734.948 208.467 734.948 208.177V202H707.108C704.962 202 702.961 201.449 701.105 200.347C699.307 199.245 697.857 197.795 696.755 195.997C695.653 194.199 695.102 192.198 695.102 189.994V151.714H706.499V189.559C706.499 189.849 706.586 190.11 706.76 190.342C706.992 190.516 707.253 190.603 707.543 190.603H733.904C734.194 190.603 734.426 190.516 734.6 190.342C734.832 190.11 734.948 189.849 734.948 189.559V151.714H746.345V208.699C746.345 210.903 745.823 212.904 744.779 214.702C743.735 216.558 742.285 218.008 740.429 219.052C738.631 220.154 736.63 220.705 734.426 220.705H703.541ZM767.151 202C764.947 202 762.917 201.449 761.061 200.347C759.263 199.245 757.813 197.795 756.711 195.997C755.667 194.199 755.145 192.198 755.145 189.994V171.028H794.991V163.981C794.991 163.691 794.875 163.459 794.643 163.285C794.469 163.053 794.237 162.937 793.947 162.937H755.145V151.54H794.382C796.586 151.54 798.587 152.091 800.385 153.193C802.241 154.295 803.691 155.745 804.735 157.543C805.837 159.341 806.388 161.342 806.388 163.546V202H767.151ZM767.586 190.603H794.991V181.294H766.542V189.559C766.542 189.849 766.629 190.11 766.803 190.342C767.035 190.516 767.296 190.603 767.586 190.603Z"/>
</mask>
<path d="M512.791 202C510.587 202 508.557 201.449 506.701 200.347C504.903 199.245 503.453 197.795 502.351 195.997C501.249 194.141 500.698 192.111 500.698 189.907V139.36H512.182V189.385C512.182 189.675 512.269 189.936 512.443 190.168C512.675 190.342 512.936 190.429 513.226 190.429H550.636C550.926 190.429 551.187 190.342 551.419 190.168C551.651 189.936 551.767 189.675 551.767 189.385V139.36H563.338V189.907C563.338 192.111 562.787 194.141 561.685 195.997C560.583 197.795 559.104 199.245 557.248 200.347C555.45 201.449 553.449 202 551.245 202H512.791ZM574.485 222.01V151.54H613.722C615.926 151.54 617.927 152.091 619.725 153.193C621.581 154.295 623.031 155.745 624.075 157.543C625.177 159.341 625.728 161.342 625.728 163.546V189.994C625.728 192.198 625.177 194.199 624.075 195.997C623.031 197.795 621.581 199.245 619.725 200.347C617.927 201.449 615.926 202 613.722 202H585.882V222.01H574.485ZM586.926 190.603H613.287C613.577 190.603 613.809 190.516 613.983 190.342C614.215 190.11 614.331 189.849 614.331 189.559V163.981C614.331 163.691 614.215 163.459 613.983 163.285C613.809 163.053 613.577 162.937 613.287 162.937H586.926C586.636 162.937 586.375 163.053 586.143 163.285C585.969 163.459 585.882 163.691 585.882 163.981V189.559C585.882 189.849 585.969 190.11 586.143 190.342C586.375 190.516 586.636 190.603 586.926 190.603ZM645.83 202C643.626 202 641.596 201.449 639.74 200.347C637.942 199.245 636.492 197.795 635.39 195.997C634.346 194.199 633.824 192.198 633.824 189.994V171.028H673.67V163.981C673.67 163.691 673.554 163.459 673.322 163.285C673.148 163.053 672.916 162.937 672.626 162.937H633.824V151.54H673.061C675.265 151.54 677.266 152.091 679.064 153.193C680.92 154.295 682.37 155.745 683.414 157.543C684.516 159.341 685.067 161.342 685.067 163.546V202H645.83ZM646.265 190.603H673.67V181.294H645.221V189.559C645.221 189.849 645.308 190.11 645.482 190.342C645.714 190.516 645.975 190.603 646.265 190.603ZM703.541 220.705V209.221H733.904C734.194 209.221 734.426 209.105 734.6 208.873C734.832 208.699 734.948 208.467 734.948 208.177V202H707.108C704.962 202 702.961 201.449 701.105 200.347C699.307 199.245 697.857 197.795 696.755 195.997C695.653 194.199 695.102 192.198 695.102 189.994V151.714H706.499V189.559C706.499 189.849 706.586 190.11 706.76 190.342C706.992 190.516 707.253 190.603 707.543 190.603H733.904C734.194 190.603 734.426 190.516 734.6 190.342C734.832 190.11 734.948 189.849 734.948 189.559V151.714H746.345V208.699C746.345 210.903 745.823 212.904 744.779 214.702C743.735 216.558 742.285 218.008 740.429 219.052C738.631 220.154 736.63 220.705 734.426 220.705H703.541ZM767.151 202C764.947 202 762.917 201.449 761.061 200.347C759.263 199.245 757.813 197.795 756.711 195.997C755.667 194.199 755.145 192.198 755.145 189.994V171.028H794.991V163.981C794.991 163.691 794.875 163.459 794.643 163.285C794.469 163.053 794.237 162.937 793.947 162.937H755.145V151.54H794.382C796.586 151.54 798.587 152.091 800.385 153.193C802.241 154.295 803.691 155.745 804.735 157.543C805.837 159.341 806.388 161.342 806.388 163.546V202H767.151ZM767.586 190.603H794.991V181.294H766.542V189.559C766.542 189.849 766.629 190.11 766.803 190.342C767.035 190.516 767.296 190.603 767.586 190.603Z" fill="#0F1019"/>
<path d="M506.701 200.347L506.178 201.2L506.19 201.207L506.701 200.347ZM502.351 195.997L501.491 196.508L501.498 196.52L502.351 195.997ZM500.698 139.36V138.36H499.698V139.36H500.698ZM512.182 139.36H513.182V138.36H512.182V139.36ZM512.443 190.168L511.643 190.768L511.729 190.882L511.843 190.968L512.443 190.168ZM551.419 190.168L552.019 190.968L552.076 190.925L552.126 190.875L551.419 190.168ZM551.767 139.36V138.36H550.767V139.36H551.767ZM563.338 139.36H564.338V138.36H563.338V139.36ZM561.685 195.997L562.538 196.52L562.545 196.508L561.685 195.997ZM557.248 200.347L556.737 199.487L556.725 199.494L557.248 200.347ZM512.791 201C510.763 201 508.91 200.495 507.212 199.487L506.19 201.207C508.204 202.403 510.411 203 512.791 203V201ZM507.224 199.494C505.56 198.475 504.223 197.138 503.204 195.474L501.498 196.52C502.683 198.452 504.246 200.015 506.178 201.2L507.224 199.494ZM503.211 195.486C502.203 193.788 501.698 191.935 501.698 189.907H499.698C499.698 192.287 500.295 194.494 501.491 196.508L503.211 195.486ZM501.698 189.907V139.36H499.698V189.907H501.698ZM500.698 140.36H512.182V138.36H500.698V140.36ZM511.182 139.36V189.385H513.182V139.36H511.182ZM511.182 189.385C511.182 189.891 511.339 190.363 511.643 190.768L513.243 189.568C513.199 189.509 513.182 189.459 513.182 189.385H511.182ZM511.843 190.968C512.248 191.272 512.72 191.429 513.226 191.429V189.429C513.152 189.429 513.102 189.412 513.043 189.368L511.843 190.968ZM513.226 191.429H550.636V189.429H513.226V191.429ZM550.636 191.429C551.142 191.429 551.614 191.272 552.019 190.968L550.819 189.368C550.76 189.412 550.71 189.429 550.636 189.429V191.429ZM552.126 190.875C552.519 190.482 552.767 189.976 552.767 189.385H550.767C550.767 189.39 550.767 189.392 550.767 189.391C550.767 189.39 550.767 189.39 550.766 189.392C550.765 189.395 550.754 189.419 550.712 189.461L552.126 190.875ZM552.767 189.385V139.36H550.767V189.385H552.767ZM551.767 140.36H563.338V138.36H551.767V140.36ZM562.338 139.36V189.907H564.338V139.36H562.338ZM562.338 189.907C562.338 191.935 561.833 193.788 560.825 195.486L562.545 196.508C563.741 194.494 564.338 192.287 564.338 189.907H562.338ZM560.832 195.474C559.817 197.131 558.457 198.466 556.737 199.487L557.759 201.207C559.751 200.024 561.349 198.459 562.538 196.52L560.832 195.474ZM556.725 199.494C555.092 200.496 553.273 201 551.245 201V203C553.625 203 555.808 202.402 557.771 201.2L556.725 199.494ZM551.245 201H512.791V203H551.245V201ZM574.485 222.01H573.485V223.01H574.485V222.01ZM574.485 151.54V150.54H573.485V151.54H574.485ZM619.725 153.193L619.202 154.046L619.214 154.053L619.725 153.193ZM624.075 157.543L623.21 158.045L623.216 158.055L623.222 158.066L624.075 157.543ZM624.075 195.997L623.222 195.474L623.216 195.485L623.21 195.495L624.075 195.997ZM619.725 200.347L619.214 199.487L619.202 199.494L619.725 200.347ZM585.882 202V201H584.882V202H585.882ZM585.882 222.01V223.01H586.882V222.01H585.882ZM613.983 190.342L614.69 191.049L614.69 191.049L613.983 190.342ZM613.983 163.285L613.183 163.885L613.269 163.999L613.383 164.085L613.983 163.285ZM586.143 163.285L586.85 163.992L586.85 163.992L586.143 163.285ZM586.143 190.342L585.343 190.942L585.429 191.056L585.543 191.142L586.143 190.342ZM575.485 222.01V151.54H573.485V222.01H575.485ZM574.485 152.54H613.722V150.54H574.485V152.54ZM613.722 152.54C615.75 152.54 617.569 153.044 619.202 154.046L620.247 152.34C618.285 151.138 616.102 150.54 613.722 150.54V152.54ZM619.214 154.053C620.93 155.071 622.255 156.4 623.21 158.045L624.94 157.041C623.807 155.09 622.232 153.519 620.235 152.333L619.214 154.053ZM623.222 158.066C624.223 159.699 624.728 161.518 624.728 163.546H626.728C626.728 161.166 626.13 158.983 624.927 157.02L623.222 158.066ZM624.728 163.546V189.994H626.728V163.546H624.728ZM624.728 189.994C624.728 192.022 624.223 193.841 623.222 195.474L624.927 196.52C626.13 194.557 626.728 192.374 626.728 189.994H624.728ZM623.21 195.495C622.255 197.14 620.93 198.469 619.214 199.487L620.235 201.207C622.232 200.021 623.807 198.45 624.94 196.499L623.21 195.495ZM619.202 199.494C617.569 200.496 615.75 201 613.722 201V203C616.102 203 618.285 202.402 620.247 201.2L619.202 199.494ZM613.722 201H585.882V203H613.722V201ZM584.882 202V222.01H586.882V202H584.882ZM585.882 221.01H574.485V223.01H585.882V221.01ZM586.926 191.603H613.287V189.603H586.926V191.603ZM613.287 191.603C613.791 191.603 614.295 191.444 614.69 191.049L613.276 189.635C613.282 189.629 613.29 189.622 613.301 189.615C613.311 189.608 613.321 189.604 613.327 189.601C613.341 189.596 613.332 189.603 613.287 189.603V191.603ZM614.69 191.049C615.083 190.656 615.331 190.15 615.331 189.559H613.331C613.331 189.564 613.33 189.566 613.331 189.565C613.331 189.564 613.331 189.564 613.33 189.566C613.329 189.569 613.318 189.593 613.276 189.635L614.69 191.049ZM615.331 189.559V163.981H613.331V189.559H615.331ZM615.331 163.981C615.331 163.376 615.067 162.848 614.583 162.485L613.383 164.085C613.387 164.088 613.384 164.086 613.376 164.077C613.368 164.068 613.358 164.054 613.349 164.037C613.341 164.019 613.336 164.003 613.333 163.991C613.33 163.98 613.331 163.975 613.331 163.981H615.331ZM614.783 162.685C614.42 162.201 613.892 161.937 613.287 161.937V163.937C613.293 163.937 613.288 163.938 613.277 163.935C613.264 163.932 613.249 163.927 613.231 163.918C613.214 163.91 613.2 163.9 613.191 163.892C613.182 163.884 613.179 163.88 613.183 163.885L614.783 162.685ZM613.287 161.937H586.926V163.937H613.287V161.937ZM586.926 161.937C586.335 161.937 585.828 162.185 585.436 162.578L586.85 163.992C586.892 163.95 586.916 163.939 586.919 163.938C586.921 163.937 586.921 163.937 586.92 163.937C586.919 163.937 586.921 163.937 586.926 163.937V161.937ZM585.436 162.578C585.041 162.973 584.882 163.477 584.882 163.981H586.882C586.882 163.936 586.889 163.927 586.883 163.941C586.881 163.947 586.877 163.957 586.87 163.967C586.863 163.978 586.856 163.986 586.85 163.992L585.436 162.578ZM584.882 163.981V189.559H586.882V163.981H584.882ZM584.882 189.559C584.882 190.065 585.039 190.537 585.343 190.942L586.943 189.742C586.899 189.683 586.882 189.633 586.882 189.559H584.882ZM585.543 191.142C585.948 191.446 586.42 191.603 586.926 191.603V189.603C586.852 189.603 586.802 189.586 586.743 189.542L585.543 191.142ZM639.74 200.347L639.218 201.2L639.23 201.207L639.74 200.347ZM635.39 195.997L634.526 196.499L634.531 196.509L634.538 196.52L635.39 195.997ZM633.824 171.028V170.028H632.824V171.028H633.824ZM673.67 171.028V172.028H674.67V171.028H673.67ZM673.322 163.285L672.522 163.885L672.608 163.999L672.722 164.085L673.322 163.285ZM633.824 162.937H632.824V163.937H633.824V162.937ZM633.824 151.54V150.54H632.824V151.54H633.824ZM679.064 153.193L678.542 154.046L678.554 154.053L679.064 153.193ZM683.414 157.543L682.55 158.045L682.555 158.055L682.562 158.066L683.414 157.543ZM685.067 202V203H686.067V202H685.067ZM673.67 190.603V191.603H674.67V190.603H673.67ZM673.67 181.294H674.67V180.294H673.67V181.294ZM645.221 181.294V180.294H644.221V181.294H645.221ZM645.482 190.342L644.682 190.942L644.768 191.056L644.882 191.142L645.482 190.342ZM645.83 201C643.802 201 641.949 200.495 640.251 199.487L639.23 201.207C641.244 202.403 643.451 203 645.83 203V201ZM640.263 199.494C638.599 198.475 637.262 197.138 636.243 195.474L634.538 196.52C635.722 198.452 637.285 200.015 639.218 201.2L640.263 199.494ZM636.255 195.495C635.305 193.859 634.824 192.033 634.824 189.994H632.824C632.824 192.363 633.388 194.539 634.526 196.499L636.255 195.495ZM634.824 189.994V171.028H632.824V189.994H634.824ZM633.824 172.028H673.67V170.028H633.824V172.028ZM674.67 171.028V163.981H672.67V171.028H674.67ZM674.67 163.981C674.67 163.376 674.406 162.848 673.922 162.485L672.722 164.085C672.727 164.088 672.723 164.086 672.715 164.077C672.707 164.068 672.698 164.054 672.689 164.037C672.68 164.019 672.675 164.003 672.672 163.991C672.67 163.98 672.67 163.975 672.67 163.981H674.67ZM674.122 162.685C673.759 162.201 673.231 161.937 672.626 161.937V163.937C672.632 163.937 672.628 163.938 672.616 163.935C672.604 163.932 672.588 163.927 672.571 163.918C672.553 163.91 672.54 163.9 672.53 163.892C672.521 163.884 672.519 163.88 672.522 163.885L674.122 162.685ZM672.626 161.937H633.824V163.937H672.626V161.937ZM634.824 162.937V151.54H632.824V162.937H634.824ZM633.824 152.54H673.061V150.54H633.824V152.54ZM673.061 152.54C675.09 152.54 676.908 153.044 678.542 154.046L679.587 152.34C677.624 151.138 675.441 150.54 673.061 150.54V152.54ZM678.554 154.053C680.269 155.071 681.595 156.4 682.55 158.045L684.279 157.041C683.146 155.09 681.572 153.519 679.575 152.333L678.554 154.053ZM682.562 158.066C683.563 159.699 684.067 161.518 684.067 163.546H686.067C686.067 161.166 685.47 158.983 684.267 157.02L682.562 158.066ZM684.067 163.546V202H686.067V163.546H684.067ZM685.067 201H645.83V203H685.067V201ZM646.265 191.603H673.67V189.603H646.265V191.603ZM674.67 190.603V181.294H672.67V190.603H674.67ZM673.67 180.294H645.221V182.294H673.67V180.294ZM644.221 181.294V189.559H646.221V181.294H644.221ZM644.221 189.559C644.221 190.065 644.378 190.537 644.682 190.942L646.282 189.742C646.238 189.683 646.221 189.633 646.221 189.559H644.221ZM644.882 191.142C645.287 191.446 645.759 191.603 646.265 191.603V189.603C646.192 189.603 646.141 189.586 646.082 189.542L644.882 191.142ZM703.541 220.705H702.541V221.705H703.541V220.705ZM703.541 209.221V208.221H702.541V209.221H703.541ZM734.6 208.873L734 208.073L733.885 208.159L733.8 208.273L734.6 208.873ZM734.948 202H735.948V201H734.948V202ZM701.105 200.347L700.582 201.2L700.594 201.207L701.105 200.347ZM696.755 195.997L697.607 195.474L697.607 195.474L696.755 195.997ZM695.102 151.714V150.714H694.102V151.714H695.102ZM706.499 151.714H707.499V150.714H706.499V151.714ZM706.76 190.342L705.96 190.942L706.045 191.056L706.16 191.142L706.76 190.342ZM734.6 190.342L735.307 191.049L735.307 191.049L734.6 190.342ZM734.948 151.714V150.714H733.948V151.714H734.948ZM746.345 151.714H747.345V150.714H746.345V151.714ZM744.779 214.702L743.914 214.2L743.907 214.212L744.779 214.702ZM740.429 219.052L739.938 218.18L739.922 218.19L739.906 218.199L740.429 219.052ZM704.541 220.705V209.221H702.541V220.705H704.541ZM703.541 210.221H733.904V208.221H703.541V210.221ZM733.904 210.221C734.508 210.221 735.037 209.957 735.4 209.473L733.8 208.273C733.796 208.278 733.798 208.274 733.807 208.266C733.817 208.258 733.83 208.248 733.848 208.24C733.865 208.231 733.881 208.226 733.893 208.223C733.905 208.22 733.909 208.221 733.904 208.221V210.221ZM735.2 209.673C735.683 209.31 735.948 208.782 735.948 208.177H733.948C733.948 208.183 733.947 208.178 733.95 208.167C733.952 208.155 733.957 208.139 733.966 208.121C733.975 208.104 733.984 208.09 733.993 208.081C734 208.072 734.004 208.07 734 208.073L735.2 209.673ZM735.948 208.177V202H733.948V208.177H735.948ZM734.948 201H707.108V203H734.948V201ZM707.108 201C705.142 201 703.318 200.498 701.615 199.487L700.594 201.207C702.604 202.4 704.781 203 707.108 203V201ZM701.627 199.494C699.964 198.475 698.627 197.138 697.607 195.474L695.902 196.52C697.086 198.452 698.649 200.015 700.582 201.2L701.627 199.494ZM697.607 195.474C696.606 193.841 696.102 192.022 696.102 189.994H694.102C694.102 192.374 694.699 194.557 695.902 196.52L697.607 195.474ZM696.102 189.994V151.714H694.102V189.994H696.102ZM695.102 152.714H706.499V150.714H695.102V152.714ZM705.499 151.714V189.559H707.499V151.714H705.499ZM705.499 189.559C705.499 190.065 705.656 190.537 705.96 190.942L707.56 189.742C707.515 189.683 707.499 189.633 707.499 189.559H705.499ZM706.16 191.142C706.565 191.446 707.036 191.603 707.543 191.603V189.603C707.469 189.603 707.418 189.586 707.36 189.542L706.16 191.142ZM707.543 191.603H733.904V189.603H707.543V191.603ZM733.904 191.603C734.408 191.603 734.912 191.444 735.307 191.049L733.892 189.635C733.898 189.629 733.907 189.622 733.917 189.615C733.928 189.608 733.937 189.604 733.944 189.601C733.958 189.596 733.949 189.603 733.904 189.603V191.603ZM735.307 191.049C735.699 190.656 735.948 190.15 735.948 189.559H733.948C733.948 189.564 733.947 189.566 733.947 189.565C733.947 189.564 733.948 189.564 733.947 189.566C733.945 189.569 733.934 189.593 733.892 189.635L735.307 191.049ZM735.948 189.559V151.714H733.948V189.559H735.948ZM734.948 152.714H746.345V150.714H734.948V152.714ZM745.345 151.714V208.699H747.345V151.714H745.345ZM745.345 208.699C745.345 210.738 744.864 212.564 743.914 214.2L745.643 215.204C746.781 213.244 747.345 211.068 747.345 208.699H745.345ZM743.907 214.212C742.953 215.908 741.635 217.226 739.938 218.18L740.919 219.924C742.934 218.79 744.516 217.208 745.65 215.192L743.907 214.212ZM739.906 218.199C738.273 219.201 736.454 219.705 734.426 219.705V221.705C736.805 221.705 738.989 221.107 740.951 219.905L739.906 218.199ZM734.426 219.705H703.541V221.705H734.426V219.705ZM761.061 200.347L760.539 201.2L760.551 201.207L761.061 200.347ZM756.711 195.997L755.846 196.499L755.852 196.509L755.859 196.52L756.711 195.997ZM755.145 171.028V170.028H754.145V171.028H755.145ZM794.991 171.028V172.028H795.991V171.028H794.991ZM794.643 163.285L793.843 163.885L793.929 163.999L794.043 164.085L794.643 163.285ZM755.145 162.937H754.145V163.937H755.145V162.937ZM755.145 151.54V150.54H754.145V151.54H755.145ZM800.385 153.193L799.863 154.046L799.875 154.053L800.385 153.193ZM804.735 157.543L803.87 158.045L803.876 158.055L803.883 158.066L804.735 157.543ZM806.388 202V203H807.388V202H806.388ZM794.991 190.603V191.603H795.991V190.603H794.991ZM794.991 181.294H795.991V180.294H794.991V181.294ZM766.542 181.294V180.294H765.542V181.294H766.542ZM766.803 190.342L766.003 190.942L766.089 191.056L766.203 191.142L766.803 190.342ZM767.151 201C765.123 201 763.27 200.495 761.572 199.487L760.551 201.207C762.564 202.403 764.771 203 767.151 203V201ZM761.584 199.494C759.92 198.475 758.583 197.138 757.564 195.474L755.859 196.52C757.043 198.452 758.606 200.015 760.539 201.2L761.584 199.494ZM757.576 195.495C756.626 193.859 756.145 192.033 756.145 189.994H754.145C754.145 192.363 754.708 194.539 755.846 196.499L757.576 195.495ZM756.145 189.994V171.028H754.145V189.994H756.145ZM755.145 172.028H794.991V170.028H755.145V172.028ZM795.991 171.028V163.981H793.991V171.028H795.991ZM795.991 163.981C795.991 163.376 795.727 162.848 795.243 162.485L794.043 164.085C794.048 164.088 794.044 164.086 794.036 164.077C794.028 164.068 794.018 164.054 794.01 164.037C794.001 164.019 793.996 164.003 793.993 163.991C793.991 163.98 793.991 163.975 793.991 163.981H795.991ZM795.443 162.685C795.08 162.201 794.552 161.937 793.947 161.937V163.937C793.953 163.937 793.949 163.938 793.937 163.935C793.925 163.932 793.909 163.927 793.891 163.918C793.874 163.91 793.86 163.9 793.851 163.892C793.842 163.884 793.84 163.88 793.843 163.885L795.443 162.685ZM793.947 161.937H755.145V163.937H793.947V161.937ZM756.145 162.937V151.54H754.145V162.937H756.145ZM755.145 152.54H794.382V150.54H755.145V152.54ZM794.382 152.54C796.41 152.54 798.229 153.044 799.863 154.046L800.908 152.34C798.945 151.138 796.762 150.54 794.382 150.54V152.54ZM799.875 154.053C801.59 155.071 802.915 156.4 803.87 158.045L805.6 157.041C804.467 155.09 802.893 153.519 800.896 152.333L799.875 154.053ZM803.883 158.066C804.884 159.699 805.388 161.518 805.388 163.546H807.388C807.388 161.166 806.791 158.983 805.588 157.02L803.883 158.066ZM805.388 163.546V202H807.388V163.546H805.388ZM806.388 201H767.151V203H806.388V201ZM767.586 191.603H794.991V189.603H767.586V191.603ZM795.991 190.603V181.294H793.991V190.603H795.991ZM794.991 180.294H766.542V182.294H794.991V180.294ZM765.542 181.294V189.559H767.542V181.294H765.542ZM765.542 189.559C765.542 190.065 765.699 190.537 766.003 190.942L767.603 189.742C767.559 189.683 767.542 189.633 767.542 189.559H765.542ZM766.203 191.142C766.608 191.446 767.08 191.603 767.586 191.603V189.603C767.513 189.603 767.462 189.586 767.403 189.542L766.203 191.142Z" fill="#0085FF" mask="url(#path-10-outside-4_121_2)"/>
<path d="M141.167 194.99C140.611 194.99 140.333 195.267 140.333 195.823V202.292C140.333 202.568 140.443 202.833 140.638 203.028C140.834 203.224 141.099 203.333 141.375 203.333H147.625C147.901 203.333 148.166 203.443 148.362 203.638C148.557 203.834 148.667 204.099 148.667 204.375V210.885C148.667 211.406 148.406 211.667 147.885 211.667H116.5C115.715 211.667 115.323 211.274 115.323 210.49L115.344 204.635C115.344 203.774 115.774 203.344 116.635 203.344L122.635 203.333C122.913 203.331 123.178 203.219 123.373 203.022C123.568 202.825 123.677 202.558 123.677 202.281L123.667 195.844C123.667 195.295 123.392 195.021 122.844 195.021C114.017 194.979 104.854 194.983 95.3542 195.031C89.8646 195.063 86.1354 191.552 86.1458 186.01C86.1667 170.163 86.1771 153.983 86.1771 137.469C86.1771 130.958 90.2708 128.281 96.2604 128.281C121.031 128.302 145.156 128.326 168.635 128.354C175.583 128.354 177.99 132.802 177.927 139.073C177.76 154.816 177.75 170.215 177.896 185.271C177.958 191.806 174.562 195.059 167.708 195.031C159.104 195.003 150.257 194.99 141.167 194.99ZM169.5 137.406C169.5 137.21 169.422 137.022 169.283 136.883C169.145 136.745 168.957 136.667 168.76 136.667H95.2396C95.0434 136.667 94.8553 136.745 94.7166 136.883C94.5779 137.022 94.5 137.21 94.5 137.406V185.927C94.5 186.123 94.5779 186.311 94.7166 186.45C94.8553 186.589 95.0434 186.667 95.2396 186.667H168.76C168.957 186.667 169.145 186.589 169.283 186.45C169.422 186.311 169.5 186.123 169.5 185.927V137.406Z" fill="#FFF6FC" stroke="#FFC700"/>
<path d="M138.735 145.632L133.581 144.347C133.329 144.284 133.075 144.437 133.012 144.689L124.923 177.133C124.861 177.384 125.013 177.638 125.265 177.701L130.419 178.986C130.671 179.049 130.925 178.896 130.988 178.645L139.077 146.201C139.139 145.949 138.987 145.695 138.735 145.632Z" fill="#F97316" stroke="#0085FF"/>
<path d="M111.49 161.948L120.073 170.51C120.114 170.551 120.148 170.6 120.17 170.653C120.193 170.707 120.204 170.765 120.204 170.823C120.204 170.881 120.193 170.939 120.17 170.992C120.148 171.046 120.114 171.095 120.073 171.135L116.521 174.708C116.48 174.75 116.431 174.783 116.378 174.805C116.324 174.828 116.267 174.84 116.208 174.84C116.15 174.84 116.092 174.828 116.039 174.805C115.985 174.783 115.937 174.75 115.896 174.708L103.167 161.948C103.125 161.907 103.092 161.859 103.07 161.805C103.047 161.751 103.035 161.694 103.035 161.635C103.035 161.577 103.047 161.52 103.07 161.466C103.092 161.412 103.125 161.364 103.167 161.323L115.865 148.615C115.905 148.573 115.954 148.54 116.008 148.517C116.061 148.495 116.119 148.483 116.177 148.483C116.235 148.483 116.293 148.495 116.347 148.517C116.4 148.54 116.449 148.573 116.49 148.615L120.052 152.177C120.094 152.218 120.127 152.266 120.149 152.32C120.172 152.374 120.183 152.431 120.183 152.49C120.183 152.548 120.172 152.605 120.149 152.659C120.127 152.713 120.094 152.761 120.052 152.802L111.49 161.323C111.448 161.364 111.415 161.412 111.392 161.466C111.37 161.52 111.358 161.577 111.358 161.635C111.358 161.694 111.37 161.751 111.392 161.805C111.415 161.859 111.448 161.907 111.49 161.948Z" fill="#F97316" stroke="#0085FF"/>
<path d="M152.552 161.323L143.969 152.781C143.927 152.741 143.894 152.692 143.872 152.638C143.849 152.585 143.837 152.527 143.837 152.469C143.837 152.411 143.849 152.353 143.872 152.299C143.894 152.246 143.927 152.197 143.969 152.156L147.521 148.615C147.562 148.573 147.61 148.54 147.664 148.517C147.718 148.495 147.775 148.483 147.833 148.483C147.892 148.483 147.949 148.495 148.003 148.517C148.056 148.54 148.105 148.573 148.146 148.615L160.885 161.323C160.927 161.364 160.96 161.412 160.983 161.466C161.005 161.52 161.017 161.577 161.017 161.635C161.017 161.694 161.005 161.751 160.983 161.805C160.96 161.859 160.927 161.907 160.885 161.948L148.125 174.708C148.084 174.75 148.036 174.783 147.982 174.805C147.928 174.828 147.871 174.84 147.813 174.84C147.754 174.84 147.697 174.828 147.643 174.805C147.589 174.783 147.541 174.75 147.5 174.708L143.958 171.135C143.917 171.095 143.884 171.046 143.861 170.992C143.839 170.939 143.827 170.881 143.827 170.823C143.827 170.765 143.839 170.707 143.861 170.653C143.884 170.6 143.917 170.551 143.958 170.51L152.552 161.948C152.594 161.907 152.627 161.859 152.649 161.805C152.672 161.751 152.683 161.694 152.683 161.635C152.683 161.577 152.672 161.52 152.649 161.466C152.627 161.412 152.594 161.364 152.552 161.323Z" fill="#F97316" stroke="#0085FF"/>
</svg>
