<?xml version="1.0" encoding="UTF-8" standalone="no"?>
<!DOCTYPE svg PUBLIC "-//W3C//DTD SVG 1.1//EN" "http://www.w3.org/Graphics/SVG/1.1/DTD/svg11.dtd">
<svg xmlns="http://www.w3.org/2000/svg" version="1.1" viewBox="0.00 0.00 319.00 226.00">
<g strokeWidth="2.00" fill="none" strokeLinecap="butt">
<path stroke="#4f4f4f" vectorEffect="non-scaling-stroke" d="
  M 300.01 115.08
  L 296.86 115.58
  Q 296.11 115.70 296.85 115.90
  Q 298.71 116.40 300.29 115.45"
/>
<path stroke="#4f4f4f" vectorEffect="non-scaling-stroke" d="
  M 172.94 207.02
  L 173.29 201.52"
/>
<path stroke="#141615" vectorEffect="non-scaling-stroke" d="
  M 173.29 201.52
  L 173.18 191.14"
/>
<path stroke="#4f4f4f" vectorEffect="non-scaling-stroke" d="
  M 221.96 115.32
  Q 227.34 115.68 230.20 115.62
  Q 244.92 115.30 264.25 115.99
  Q 273.98 116.34 286.91 115.66"
/>
<path stroke="#141615" vectorEffect="non-scaling-stroke" d="
  M 90.72 191.16
  Q 89.24 191.38 87.09 191.59
  A 2.13 1.72 84.2 0 0 85.59 193.89
  Q 85.60 194.02 85.68 194.13
  Q 85.93 194.47 85.58 194.70
  Q 85.42 194.80 85.34 195.05"
/>
<path stroke="#4f4f4f" vectorEffect="non-scaling-stroke" d="
  M 70.30 197.95
  Q 70.38 198.10 70.13 198.34
  Q 69.89 198.56 69.90 198.89
  L 70.23 207.77"
/>
<path stroke="#636564" vectorEffect="non-scaling-stroke" d="
  M 173.29 201.52
  Q 165.77 200.33 162.00 200.46
  Q 150.42 200.86 138.99 200.66
  C 125.69 200.43 112.55 200.71 99.07 200.48
  Q 89.14 200.31 77.53 200.79
  Q 77.21 200.80 77.17 200.48
  L 77.13 200.21
  Q 77.11 200.09 77.24 200.06
  L 94.44 196.78"
/>
<path stroke="#48484a" vectorEffect="non-scaling-stroke" d="
  M 94.44 196.78
  L 172.67 196.79
  Q 172.95 196.79 172.95 196.51
  L 172.97 194.78
  Q 172.97 194.54 172.73 194.59
  C 171.64 194.86 170.59 195.20 169.44 195.18
  Q 164.04 195.13 158.46 195.50
  C 156.44 195.64 154.53 195.25 152.47 195.40
  Q 150.28 195.57 147.99 195.54
  Q 138.12 195.42 128.25 195.35
  Q 107.40 195.20 86.53 195.49"
/>
<path stroke="#636564" vectorEffect="non-scaling-stroke" d="
  M 86.53 195.49
  L 85.05 195.81"
/>
<path stroke="#848284" vectorEffect="non-scaling-stroke" d="
  M 94.44 196.78
  Q 95.12 196.27 93.85 196.15
  Q 90.21 195.83 86.53 195.49"
/>
</g>
<path fill="#000000" d="
  M 300.01 115.08
  L 296.86 115.58
  Q 296.11 115.70 296.85 115.90
  Q 298.71 116.40 300.29 115.45
  L 300.84 115.73
  Q 301.31 115.97 301.84 115.97
  Q 305.27 115.96 308.69 116.25
  C 313.70 116.66 313.70 121.24 313.68 125.13
  Q 313.40 166.67 313.52 215.51
  C 313.53 219.37 312.49 222.76 308.25 222.75
  Q 239.39 222.55 178.11 222.72
  Q 175.70 222.73 174.25 220.84
  Q 173.31 219.62 173.30 216.81
  Q 173.28 211.58 172.94 207.02
  L 173.29 201.52
  L 173.18 191.14
  Q 173.24 156.92 173.21 122.45
  C 173.21 119.39 174.11 116.91 177.16 116.06
  Q 180.40 115.16 183.00 115.21
  Q 202.48 115.58 221.96 115.32
  Q 227.34 115.68 230.20 115.62
  Q 244.92 115.30 264.25 115.99
  Q 273.98 116.34 286.91 115.66
  L 294.86 115.81
  A 1.07 1.07 0.0 0 0 295.95 114.74
  L 295.80 9.74
  A 1.81 1.80 89.7 0 0 293.99 7.94
  L 10.56 8.10
  A 1.09 1.09 0.0 0 0 9.47 9.19
  L 9.48 163.34
  A 1.88 1.88 0.0 0 0 11.34 165.22
  L 19.10 165.31
  A 0.71 0.70 0.0 0 0 19.81 164.61
  Q 19.84 146.87 20.00 129.73
  C 20.05 125.00 23.29 121.68 27.98 121.69
  Q 46.25 121.76 62.61 121.64
  C 67.36 121.61 70.10 125.76 70.10 130.28
  Q 70.11 149.16 70.33 164.60
  A 0.63 0.63 0.0 0 0 70.96 165.22
  L 83.48 165.30
  A 1.24 1.23 0.2 0 0 84.73 164.07
  Q 84.73 120.96 84.65 78.47
  Q 84.64 72.30 90.98 72.31
  Q 177.05 72.41 263.68 72.32
  C 267.08 72.31 269.29 75.01 269.25 78.31
  Q 269.03 94.93 269.06 110.98
  A 0.85 0.84 0.0 0 1 268.20 111.83
  L 267.74 111.82
  Q 266.93 111.80 266.92 110.99
  L 266.73 77.74
  A 3.31 3.31 0.0 0 0 263.41 74.45
  Q 193.33 74.60 123.95 74.33
  Q 107.23 74.27 90.19 74.58
  A 3.44 3.43 -0.5 0 0 86.81 78.01
  L 86.78 189.53
  Q 86.78 190.08 87.28 190.30
  Q 88.89 191.02 90.72 191.16
  Q 89.24 191.38 87.09 191.59
  A 2.13 1.72 84.2 0 0 85.59 193.89
  Q 85.60 194.02 85.68 194.13
  Q 85.93 194.47 85.58 194.70
  Q 85.42 194.80 85.34 195.05
  Q 84.80 193.99 84.80 193.25
  Q 84.72 182.03 84.72 170.56
  A 1.27 1.27 0.0 0 0 83.45 169.29
  L 70.53 169.22
  Q 70.17 169.22 70.17 169.57
  L 70.30 197.95
  Q 70.38 198.10 70.13 198.34
  Q 69.89 198.56 69.90 198.89
  L 70.23 207.77
  Q 70.23 210.94 70.27 214.08
  Q 70.32 218.40 69.46 220.29
  Q 67.45 224.67 61.97 224.66
  Q 51.76 224.65 28.40 224.75
  C 23.29 224.77 20.22 221.32 20.22 216.46
  Q 20.24 193.66 20.05 170.04
  A 0.53 0.52 1.1 0 0 19.54 169.52
  Q 16.20 169.38 12.85 169.40
  C 8.95 169.42 5.28 167.50 5.29 163.35
  Q 5.31 86.71 5.26 9.79
  Q 5.25 7.79 6.42 6.29
  Q 8.21 3.97 11.98 3.97
  Q 82.06 3.85 156.75 3.96
  Q 227.94 4.06 294.25 4.00
  Q 298.07 4.00 299.36 7.12
  Q 299.96 8.56 299.96 12.45
  Q 299.98 63.72 300.01 115.08
  Z
  M 309.68 121.65
  A 1.68 1.68 0.0 0 0 308.00 119.97
  L 178.44 119.97
  A 1.68 1.68 0.0 0 0 176.76 121.65
  L 176.76 217.47
  A 1.68 1.68 0.0 0 0 178.44 219.15
  L 308.00 219.15
  A 1.68 1.68 0.0 0 0 309.68 217.47
  L 309.68 121.65
  Z
  M 53.60 126.61
  A 2.85 2.85 0.0 0 1 51.40 127.70
  Q 45.33 127.80 38.91 127.83
  Q 35.39 127.84 35.52 124.49
  A 0.66 0.66 0.0 0 0 34.86 123.80
  C 31.96 123.81 26.84 123.20 24.52 124.67
  C 22.07 126.23 22.20 128.45 22.22 131.25
  Q 22.42 174.65 22.39 216.17
  C 22.38 219.76 23.50 222.99 27.47 222.98
  Q 45.13 222.92 63.14 222.80
  A 4.88 4.87 -0.2 0 0 67.98 217.93
  Q 67.99 174.50 67.69 129.53
  C 67.67 126.82 66.43 124.33 63.52 123.91
  Q 60.02 123.41 55.11 123.76
  Q 54.30 123.82 54.29 124.63
  Q 54.27 125.76 53.60 126.61
  Z"
/>
<path fill="#9e9e9e" d="
  M 286.91 115.66
  Q 273.98 116.34 264.25 115.99
  Q 244.92 115.30 230.20 115.62
  Q 227.34 115.68 221.96 115.32
  C 235.30 115.07 245.84 114.98 261.99 114.57
  Q 271.42 114.33 282.75 114.41
  Q 285.10 114.42 286.91 115.66
  Z"
/>
<path fill="#9e9e9e" d="
  M 300.01 115.08
  L 300.29 115.45
  Q 298.71 116.40 296.85 115.90
  Q 296.11 115.70 296.86 115.58
  L 300.01 115.08
  Z"
/>
<path fill="#272b29" d="
  M 90.72 191.16
  L 173.18 191.14
  L 173.29 201.52
  Q 165.77 200.33 162.00 200.46
  Q 150.42 200.86 138.99 200.66
  C 125.69 200.43 112.55 200.71 99.07 200.48
  Q 89.14 200.31 77.53 200.79
  Q 77.21 200.80 77.17 200.48
  L 77.13 200.21
  Q 77.11 200.09 77.24 200.06
  L 94.44 196.78
  L 172.67 196.79
  Q 172.95 196.79 172.95 196.51
  L 172.97 194.78
  Q 172.97 194.54 172.73 194.59
  C 171.64 194.86 170.59 195.20 169.44 195.18
  Q 164.04 195.13 158.46 195.50
  C 156.44 195.64 154.53 195.25 152.47 195.40
  Q 150.28 195.57 147.99 195.54
  Q 138.12 195.42 128.25 195.35
  Q 107.40 195.20 86.53 195.49
  L 85.05 195.81
  Q 85.33 195.28 85.34 195.05
  Q 85.42 194.80 85.58 194.70
  Q 85.93 194.47 85.68 194.13
  Q 85.60 194.02 85.59 193.89
  A 2.13 1.72 84.2 0 1 87.09 191.59
  Q 89.24 191.38 90.72 191.16
  Z"
/>
<path fill="#69656a" d="
  M 94.44 196.78
  Q 95.12 196.27 93.85 196.15
  Q 90.21 195.83 86.53 195.49
  Q 107.40 195.20 128.25 195.35
  Q 138.12 195.42 147.99 195.54
  Q 150.28 195.57 152.47 195.40
  C 154.53 195.25 156.44 195.64 158.46 195.50
  Q 164.04 195.13 169.44 195.18
  C 170.59 195.20 171.64 194.86 172.73 194.59
  Q 172.97 194.54 172.97 194.78
  L 172.95 196.51
  Q 172.95 196.79 172.67 196.79
  L 94.44 196.78
  Z"
/>
<path fill="#9e9e9e" d="
  M 85.05 195.81
  L 86.53 195.49
  Q 90.21 195.83 93.85 196.15
  Q 95.12 196.27 94.44 196.78
  L 77.24 200.06
  Q 77.11 200.09 77.13 200.21
  L 77.17 200.48
  Q 77.21 200.80 77.53 200.79
  Q 89.14 200.31 99.07 200.48
  C 112.55 200.71 125.69 200.43 138.99 200.66
  Q 150.42 200.86 162.00 200.46
  Q 165.77 200.33 173.29 201.52
  L 172.94 207.02
  Q 165.60 206.86 158.30 206.74
  C 144.40 206.52 128.28 207.54 116.61 207.30
  Q 96.23 206.87 76.75 207.06
  Q 73.69 207.09 70.23 207.77
  L 69.90 198.89
  Q 69.89 198.56 70.13 198.34
  Q 70.38 198.10 70.30 197.95
  Q 70.58 198.27 70.75 198.26
  Q 78.03 197.67 85.05 195.81
  Z"
/>
</svg>
